<svg width="180" height="28" viewBox="0 0 180 28" fill="none" xmlns="http://www.w3.org/2000/svg">
<g clip-path="url(#clip0_771_5933)">
<path d="M27.1731 14.0802C27.1731 21.5616 21.1495 27.6268 13.7188 27.6268C6.28804 27.6268 0.264893 21.5635 0.264893 14.0802C0.264893 6.59695 6.2885 0.534058 13.7188 0.534058C21.149 0.534058 27.1731 6.59878 27.1731 14.0802Z" fill="black"/>
<path d="M41.9326 14.0802C41.9326 21.123 38.9206 26.8318 35.2054 26.8318C31.4903 26.8318 28.4783 21.1212 28.4783 14.0802C28.4783 7.03915 31.4903 1.32849 35.2054 1.32849C38.9206 1.32849 41.9326 7.03915 41.9326 14.0802Z" fill="black"/>
<path d="M47.9694 14.0803C47.9694 20.3903 46.9099 25.5052 45.6033 25.5052C44.2967 25.5052 43.2373 20.3885 43.2373 14.0803C43.2373 7.77203 44.2967 2.65527 45.6038 2.65527C46.9109 2.65527 47.9694 7.77066 47.9694 14.0803Z" fill="black"/>
<path d="M85.101 1.70868L85.1385 1.70046V1.41036H77.4871L70.3826 18.1083L63.278 1.41036H55.0328V1.70046L55.0698 1.70868C56.4664 2.02391 57.1754 2.49401 57.1754 4.18939V24.0374C57.1754 25.7327 56.4636 26.2029 55.067 26.5181L55.03 26.5263V26.8173H60.6242V26.5272L60.5872 26.519C59.1906 26.2038 58.4815 25.7337 58.4815 24.0383V5.34066L67.6081 26.8173H68.1257L77.5181 4.74173V24.5285C77.3985 25.8675 76.6958 26.281 75.4312 26.5665L75.3938 26.5752V26.863H85.1385V26.5752L85.101 26.5665C83.8351 26.281 83.1155 25.8675 82.9958 24.5285L82.9894 4.18939H82.9958C82.9958 2.49401 83.7048 2.02391 85.101 1.70868ZM89.5521 14.8569C89.7115 11.2907 90.9921 8.71681 93.1411 8.67249C93.804 8.68346 94.36 8.90092 94.7922 9.3194C95.7105 10.2107 96.1422 12.0733 96.0755 14.8569H89.5521ZM89.4557 15.862H100.877V15.814C100.845 13.0871 100.055 10.9659 98.5315 9.50945C97.2149 8.25082 95.2655 7.55823 93.2179 7.55823H93.1722C92.1096 7.55823 90.8062 7.81589 89.8788 8.2828C88.823 8.77163 87.8919 9.50259 87.1171 10.462C85.8699 12.0075 85.1142 14.0962 84.9306 16.4436C84.9246 16.5139 84.9196 16.5843 84.9146 16.6546C84.9096 16.725 84.9064 16.788 84.9032 16.8552C84.8968 16.9808 84.8918 17.1069 84.889 17.2335C84.8844 17.4363 84.8831 17.6405 84.8867 17.8461C85.0105 23.1625 87.8823 27.4112 92.9831 27.4112C97.4602 27.4112 100.067 24.1383 100.718 19.7452L100.389 19.6297C99.247 21.9907 97.1957 23.4215 94.8612 23.247C91.6742 23.0085 89.2328 19.7772 89.4543 15.8629M113.79 23.0666C113.416 23.9551 112.634 24.444 111.587 24.444C110.539 24.444 109.581 23.7249 108.901 22.4183C108.17 21.0157 107.786 19.033 107.786 16.6843C107.786 11.796 109.306 8.63412 111.659 8.63412C112.645 8.63412 113.42 9.12295 113.79 9.97589V23.0666ZM121.367 26.5514C119.97 26.2211 119.261 25.7291 119.261 23.9474V0.241272L110.776 2.74117V3.04726L110.828 3.04315C111.999 2.94858 112.793 3.11031 113.254 3.5361C113.615 3.8696 113.79 4.38127 113.79 5.10127V8.35132C112.954 7.81726 111.959 7.55731 110.751 7.55731C108.303 7.55731 106.065 8.58843 104.451 10.4611C102.768 12.4127 101.878 15.0799 101.878 18.1732C101.878 23.6979 104.598 27.4112 108.645 27.4112C111.013 27.4112 112.918 26.1138 113.79 23.9254V26.863H121.404V26.5587L121.367 26.5514ZM128.644 3.46528C128.644 1.74021 127.343 0.439089 125.618 0.439089C123.901 0.439089 122.557 1.76853 122.557 3.46528C122.557 5.16203 123.902 6.49148 125.618 6.49148C127.343 6.49148 128.644 5.19036 128.644 3.46528ZM130.647 26.5514C129.25 26.2211 128.541 25.7291 128.541 23.9474H128.535V7.61351L120.921 9.79955V10.0965L120.967 10.1006C122.615 10.2473 123.065 10.8147 123.065 12.7399V26.863H130.686V26.5587L130.647 26.5514ZM150.157 26.5514C148.76 26.2211 148.051 25.7291 148.051 23.9474V7.61351L140.802 9.72737V10.0252L140.845 10.0298C142.192 10.1714 142.581 10.7713 142.581 12.7051V23.03C142.132 23.9186 141.289 24.4462 140.269 24.4819C138.614 24.4819 137.702 23.364 137.702 21.3342V7.61396L130.088 9.8V10.0965L130.134 10.1006C131.781 10.2468 132.233 10.8142 132.233 12.7399V21.4781C132.229 22.0881 132.282 22.6971 132.391 23.2973L132.528 23.8935C133.173 26.2033 134.862 27.4112 137.508 27.4112C139.749 27.4112 141.714 26.0238 142.579 23.8528V26.868H150.193V26.5638L150.157 26.5514ZM179.735 26.863V26.5583L179.698 26.5496C178.182 26.2001 177.592 25.5413 177.592 24.2V13.0893C177.592 9.62503 175.646 7.55731 172.387 7.55731C170.012 7.55731 168.008 8.93016 167.237 11.0687C166.625 8.8027 164.862 7.55731 162.255 7.55731C159.965 7.55731 158.17 8.76569 157.401 10.8069V7.61488L149.787 9.71138V10.0102L149.832 10.0143C151.46 10.1586 151.931 10.7425 151.931 12.6183V26.863H159.035V26.5587L158.997 26.5496C157.789 26.2654 157.398 25.7474 157.398 24.4179V11.6827C157.718 10.9357 158.363 10.0508 159.637 10.0508C161.22 10.0508 162.022 11.1473 162.022 13.3073V26.863H169.128V26.5587L169.09 26.5496C167.881 26.2654 167.491 25.7474 167.491 24.4179V13.088C167.494 12.6643 167.461 12.2412 167.391 11.8234C167.73 11.0116 168.411 10.0508 169.738 10.0508C171.342 10.0508 172.122 11.1157 172.122 13.3073V26.863H179.735Z" fill="black"/>
</g>
<defs>
<clipPath id="clip0_771_5933">
<rect width="180" height="27.868" fill="white"/>
</clipPath>
</defs>
</svg>
