<svg width="33" height="24" viewBox="0 0 33 24" fill="none" xmlns="http://www.w3.org/2000/svg">
<path d="M18.2335 12.1899C18.2335 15.411 15.64 18.0222 12.4409 18.0222C9.24188 18.0222 6.64819 15.411 6.64819 12.1899C6.64819 8.96882 9.24168 6.35742 12.4409 6.35742C15.6402 6.35742 18.2335 8.96882 18.2335 12.1899Z" fill="#CE4321"/>
<path d="M24.5879 12.1898C24.5879 15.2218 23.2912 17.6807 21.6915 17.6807C20.0919 17.6807 18.7952 15.2218 18.7952 12.1898C18.7952 9.15785 20.0917 6.69897 21.6913 6.69897C23.291 6.69897 24.5877 9.15706 24.5877 12.1898" fill="#D73828"/>
<path d="M27.1873 12.1897C27.1873 14.9056 26.7313 17.1086 26.1686 17.1086C25.6059 17.1086 25.1501 14.9062 25.1501 12.1897C25.1501 9.47319 25.6061 7.27075 26.1686 7.27075C26.7311 7.27075 27.1873 9.47299 27.1873 12.1897Z" fill="#D73828"/>
</svg>
