<svg width="17" height="14" viewBox="0 0 17 14" fill="none" xmlns="http://www.w3.org/2000/svg">
<path d="M16.5 1.87271C15.9113 2.13404 15.2787 2.31004 14.6147 2.38937C15.2927 1.98337 15.8133 1.34004 16.058 0.573374C15.424 0.949374 14.7213 1.22271 13.9733 1.37004C13.3753 0.732041 12.5213 0.333374 11.5773 0.333374C9.458 0.333374 7.90067 2.31071 8.37933 4.36337C5.652 4.22671 3.23333 2.92004 1.614 0.934041C0.754 2.40937 1.168 4.33937 2.62933 5.31671C2.092 5.29937 1.58533 5.15204 1.14333 4.90604C1.10733 6.42671 2.19733 7.84937 3.776 8.16604C3.314 8.29137 2.808 8.32071 2.29333 8.22204C2.71067 9.52604 3.92267 10.4747 5.36 10.5014C3.98 11.5834 2.24133 12.0667 0.5 11.8614C1.95267 12.7927 3.67867 13.336 5.532 13.336C11.6267 13.336 15.07 8.18871 14.862 3.57204C15.5033 3.10871 16.06 2.53071 16.5 1.87271Z" fill="#CE4321"/>
</svg>
