<svg width="388" height="200" viewBox="0 0 388 200" fill="none" xmlns="http://www.w3.org/2000/svg">
<rect x="0.331543" width="386.67" height="200" fill="white"/>
<path d="M133.302 88.0691L194.333 43.6513L255.364 88.0691L232.045 159.962H156.622L133.302 88.0691Z" stroke="#E55929" stroke-width="22.0752"/>
<path d="M196.333 13.8292L193.833 9.99999M191.333 13.8292L193.833 9.99999M193.833 9.99999L193.833 85" stroke="black" stroke-width="1.2041"/>
<path d="M285.043 82.9967L287.506 78.3757M282.761 76.1609L287.506 78.3757M287.506 78.3757L216.912 101.94" stroke="black" stroke-width="1.2041"/>
<path d="M102.879 82.9967L100.416 78.3757M105.161 76.1609L100.416 78.3757M100.416 78.3757L171.01 101.94" stroke="black" stroke-width="1.2041"/>
<path d="M136.124 182.679L136.819 187.869M141.965 186.9L136.819 187.869M136.819 187.869L180.413 127.551" stroke="black" stroke-width="1.2041"/>
<path d="M253.675 181.954L253.145 187.163M247.971 186.358L253.145 187.163M253.145 187.163L207.661 128.257" stroke="black" stroke-width="1.2041"/>
<path d="M193.833 90L211.334 102.987L204.649 124H183.018L176.333 102.987L193.833 90Z" fill="#F0BE57"/>
</svg>
