<svg width="191" height="182" viewBox="0 0 191 182" fill="none" xmlns="http://www.w3.org/2000/svg">
<path d="M34.9258 80.0548L96.0001 35.6049L157.074 80.0548L133.738 152H58.2618L34.9258 80.0548Z" stroke="#E55929" stroke-width="22"/>
<path d="M98 5.82918L95.5 2M93 5.82918L95.5 2M95.5 2L95.5 77" stroke="black" stroke-width="1.2"/>
<path d="M186.709 74.9967L189.172 70.3757M184.427 68.1609L189.172 70.3757M189.172 70.3757L118.579 93.94" stroke="black" stroke-width="1.2"/>
<path d="M4.54712 74.9967L2.08383 70.3757M6.82892 68.1609L2.08383 70.3757M2.08383 70.3757L72.677 93.94" stroke="black" stroke-width="1.2"/>
<path d="M37.7913 174.679L38.4859 179.869M43.632 178.9L38.4859 179.869M38.4859 179.869L82.0801 119.551" stroke="black" stroke-width="1.2"/>
<path d="M155.341 173.953L154.811 179.163M149.637 178.358L154.811 179.163M154.811 179.163L109.327 120.257" stroke="black" stroke-width="1.2"/>
<path d="M95.5 82L113 94.9868L106.316 116H84.6844L78 94.9868L95.5 82Z" fill="#F0BE57"/>
</svg>
