<svg width="1440" height="800" viewBox="0 0 1440 800" fill="none" xmlns="http://www.w3.org/2000/svg">
<mask id="mask0_104_662" style="mask-type:luminance" maskUnits="userSpaceOnUse" x="0" y="0" width="1440" height="800">
<path d="M0 800L1440 800V0L0 0V800Z" fill="white"/>
</mask>
<g mask="url(#mask0_104_662)">
<path d="M0 800L1440 800V0L0 0V800Z" fill="url(#paint0_linear_104_662)"/>
<path d="M1688.2 -59.7834C1688.32 -59.7519 1688.41 -59.6709 1688.45 -59.5629C1688.5 -59.4234 1688.47 -59.2659 1688.36 -59.1623L648.613 914.381C648.509 914.476 648.361 914.503 648.23 914.458C648.1 914.408 648.01 914.287 647.996 914.147L559.256 -70.0928C559.247 -70.1963 559.283 -70.2998 559.351 -70.3763C559.418 -70.4528 559.522 -70.4933 559.625 -70.4933L1688.11 -59.7968C1688.14 -59.7968 1688.18 -59.7924 1688.21 -59.7834H1688.2ZM648.653 913.333L1687.19 -59.0723L560.021 -69.7598L648.653 913.328V913.333Z" fill="#E6E7E8"/>
<path d="M1444.63 718.483C1444.66 718.492 1444.69 718.505 1444.73 718.528C1444.81 718.582 1444.87 718.667 1444.89 718.762L1568.65 1306.83C1568.68 1306.96 1568.63 1307.1 1568.52 1307.19C1568.42 1307.27 1568.27 1307.29 1568.15 1307.24L648.212 914.453C648.068 914.39 647.978 914.242 647.991 914.084C648.005 913.927 648.117 913.796 648.27 913.756L1444.44 718.478C1444.5 718.465 1444.57 718.465 1444.63 718.478V718.483ZM1567.79 1306.29L1444.25 719.279L649.512 914.206L1567.79 1306.29Z" fill="#E6E7E8"/>
<path d="M-123.137 -32.7249C-123.034 -32.6979 -122.948 -32.6259 -122.903 -32.5269L170.618 596.848C170.681 596.978 170.659 597.131 170.564 597.244C170.47 597.352 170.317 597.392 170.182 597.356L-298.349 458.567C-298.448 458.54 -298.525 458.473 -298.574 458.383C-298.619 458.293 -298.628 458.189 -298.592 458.095L-123.578 -32.4954C-123.529 -32.6349 -123.398 -32.7294 -123.25 -32.7384C-123.209 -32.7384 -123.173 -32.7384 -123.137 -32.7249ZM169.61 596.42L-123.187 -31.4064L-297.769 457.973L169.615 596.42H169.61Z" fill="#E6E7E8"/>
<path d="M1102.87 273.005C1103.02 273.046 1103.13 273.185 1103.14 273.343C1103.15 273.505 1103.05 273.653 1102.89 273.707L170.411 597.352C170.236 597.415 170.038 597.329 169.957 597.158L-123.565 -32.2165C-123.623 -32.347 -123.605 -32.4955 -123.515 -32.6035C-123.425 -32.7115 -123.281 -32.761 -123.142 -32.725L1102.86 273.005C1102.86 273.005 1102.87 273.005 1102.87 273.005ZM170.483 596.546L1101.49 273.415L-122.575 -31.8295L170.483 596.546Z" fill="#E6E7E8"/>
<path d="M1208.55 -334.058C1208.6 -334.045 1208.64 -334.022 1208.68 -333.991C1208.79 -333.91 1208.84 -333.775 1208.82 -333.64L1103.13 273.428C1103.11 273.559 1103.01 273.671 1102.89 273.712C1102.76 273.752 1102.62 273.725 1102.52 273.635L685.967 -108.127C685.873 -108.212 685.832 -108.334 685.855 -108.46C685.873 -108.581 685.958 -108.685 686.071 -108.734L1208.31 -334.04C1208.39 -334.072 1208.47 -334.081 1208.55 -334.058ZM1102.52 272.636L1207.98 -333.1L686.881 -108.289L1102.52 272.636Z" fill="#E6E7E8"/>
<path d="M1234.81 134.563C1234.93 134.594 1235.02 134.689 1235.06 134.81L1359.64 544.126C1359.7 544.315 1359.6 544.513 1359.41 544.58L1006.58 668.119C1006.44 668.168 1006.29 668.128 1006.19 668.024C1006.09 667.916 1006.07 667.763 1006.12 667.628L1234.37 134.77C1234.43 134.63 1234.57 134.54 1234.72 134.549C1234.75 134.549 1234.78 134.554 1234.8 134.563H1234.81ZM1358.84 544.004L1234.65 135.985L1007.13 667.151L1358.84 544.004Z" fill="#E6E7E8"/>
<path d="M1234.81 134.563C1234.87 134.581 1234.94 134.617 1234.98 134.671C1235.08 134.779 1235.1 134.927 1235.04 135.058L1006.8 667.916C1006.72 668.096 1006.52 668.182 1006.34 668.114L312.102 410.296C311.954 410.242 311.859 410.098 311.864 409.94C311.868 409.783 311.977 409.648 312.125 409.603L1234.6 134.563C1234.67 134.545 1234.74 134.545 1234.81 134.563ZM1006.26 667.309L1234.06 135.494L313.385 409.994L1006.26 667.309H1006.26Z" fill="#E6E7E8"/>
<path d="M937.306 -46.2158C937.337 -46.2068 937.369 -46.1933 937.4 -46.1753L1234.9 134.603C1235.04 134.693 1235.11 134.869 1235.06 135.031C1235 135.193 1234.85 135.296 1234.67 135.283L629.317 83.5417C629.146 83.5237 629.011 83.3977 628.984 83.2312C628.957 83.0647 629.047 82.9026 629.204 82.8352L937.058 -46.2023C937.135 -46.2338 937.22 -46.2383 937.297 -46.2203L937.306 -46.2158ZM1233.18 134.419L937.18 -45.4508L630.874 82.9386L1233.19 134.419H1233.18Z" fill="#E6E7E8"/>
<path d="M241.228 -98.5598C241.228 -98.5598 241.268 -98.5463 241.286 -98.5373L629.51 82.8397C629.618 82.8892 629.695 82.9881 629.717 83.1051C629.74 83.2221 629.704 83.3437 629.618 83.4247L312.494 410.206C312.395 410.305 312.256 410.35 312.116 410.3C311.981 410.255 311.887 410.143 311.864 410.003L240.764 -98.1549C240.746 -98.2899 240.8 -98.4203 240.908 -98.5013C240.998 -98.5688 241.115 -98.5913 241.223 -98.5598H241.228ZM628.732 83.2852L241.588 -97.5879L312.49 409.157L628.732 83.2852Z" fill="#E6E7E8"/>
<path d="M1000.39 667.12C1000.55 663.655 1003.49 660.973 1006.96 661.135C1010.42 661.297 1013.1 664.235 1012.94 667.705C1012.78 671.17 1009.84 673.852 1006.37 673.69C1002.91 673.528 1000.22 670.589 1000.39 667.12Z" fill="#E6E7E8"/>
<path d="M938.876 631.664C944.883 631.943 949.541 637.055 949.262 643.063C948.983 649.07 943.871 653.728 937.863 653.449C931.856 653.17 927.198 648.058 927.477 642.05C927.756 636.043 932.868 631.385 938.876 631.664ZM937.926 652.054C943.164 652.297 947.624 648.233 947.867 642.995C948.11 637.757 944.046 633.298 938.808 633.055C933.57 632.812 929.111 636.875 928.868 642.113C928.625 647.351 932.688 651.811 937.926 652.054Z" fill="#E6E7E8"/>
<path d="M940.841 648.259C944.036 646.907 945.531 643.221 944.179 640.026C942.827 636.83 939.141 635.336 935.946 636.688C932.75 638.039 931.256 641.725 932.608 644.921C933.959 648.116 937.645 649.61 940.841 648.259Z" fill="#E6E7E8"/>
<path d="M604.917 520.703C605.079 517.238 608.017 514.556 611.487 514.718C614.952 514.88 617.634 517.819 617.472 521.288C617.31 524.753 614.371 527.435 610.902 527.273C607.432 527.111 604.755 524.173 604.917 520.703Z" fill="#E6E7E8"/>
<path d="M597.951 446.143C598.113 442.678 601.052 439.996 604.521 440.158C607.986 440.32 610.668 443.258 610.506 446.728C610.344 450.193 607.406 452.875 603.936 452.713C600.471 452.551 597.789 449.612 597.951 446.143Z" fill="#E6E7E8"/>
<path d="M504.423 467.504C511.947 467.855 517.784 474.259 517.437 481.787C517.086 489.311 510.683 495.152 503.154 494.801C495.63 494.45 489.794 488.047 490.14 480.518C490.491 472.994 496.895 467.158 504.423 467.504ZM503.217 493.406C509.976 493.721 515.727 488.479 516.042 481.72C516.357 474.961 511.115 469.21 504.356 468.895C497.597 468.58 491.846 473.822 491.531 480.581C491.216 487.34 496.458 493.091 503.217 493.406Z" fill="#E6E7E8"/>
<path d="M504.256 471.149C509.773 471.406 514.053 476.104 513.796 481.621C513.54 487.138 508.842 491.417 503.325 491.161C497.808 490.904 493.528 486.206 493.785 480.689C494.041 475.172 498.739 470.893 504.256 471.149ZM503.392 489.765C508.144 489.986 512.185 486.3 512.406 481.553C512.626 476.805 508.941 472.76 504.193 472.54C499.441 472.319 495.4 476.005 495.18 480.752C494.959 485.5 498.645 489.545 503.392 489.765Z" fill="#E6E7E8"/>
<path d="M497.515 480.86C497.677 477.395 500.616 474.713 504.085 474.875C507.55 475.037 510.232 477.976 510.07 481.445C509.908 484.91 506.97 487.592 503.5 487.43C500.035 487.268 497.353 484.33 497.515 480.86Z" fill="#E6E7E8"/>
<path d="M313.324 415.986C316.783 415.716 319.369 412.693 319.099 409.234C318.829 405.776 315.806 403.19 312.347 403.46C308.888 403.73 306.303 406.753 306.573 410.212C306.843 413.67 309.865 416.256 313.324 415.986Z" fill="#E6E7E8"/>
<path d="M174.525 600.868C176.652 598.127 176.153 594.181 173.412 592.054C170.67 589.928 166.724 590.426 164.598 593.168C162.471 595.909 162.97 599.855 165.711 601.982C168.453 604.108 172.399 603.61 174.525 600.868Z" fill="#E6E7E8"/>
<path d="M1364.82 546.308C1366.01 543.049 1364.33 539.442 1361.07 538.253C1357.81 537.063 1354.2 538.741 1353.01 542C1351.83 545.26 1353.5 548.866 1356.76 550.055C1360.02 551.245 1363.63 549.567 1364.82 546.308Z" fill="#E6E7E8"/>
<path d="M1234.95 118.633C1244.24 119.065 1251.45 126.971 1251.01 136.264C1250.58 145.552 1242.67 152.756 1233.39 152.324C1224.1 151.892 1216.89 143.986 1217.33 134.698C1217.76 125.41 1225.66 118.205 1234.95 118.637V118.633ZM1233.45 150.929C1241.97 151.325 1249.23 144.715 1249.62 136.196C1250.02 127.678 1243.41 120.419 1234.89 120.023C1226.37 119.627 1219.11 126.238 1218.72 134.756C1218.32 143.275 1224.93 150.529 1233.45 150.925V150.929Z" fill="#E6E7E8"/>
<path d="M1227.89 135.188C1228.05 131.723 1230.99 129.041 1234.46 129.203C1237.93 129.365 1240.61 132.304 1240.45 135.773C1240.29 139.238 1237.35 141.92 1233.88 141.758C1230.41 141.596 1227.73 138.657 1227.89 135.188Z" fill="#E6E7E8"/>
<path d="M1111.94 277.023C1114.27 271.982 1112.07 266.009 1107.03 263.681C1101.99 261.353 1096.01 263.552 1093.68 268.593C1091.36 273.633 1093.55 279.606 1098.6 281.934C1103.64 284.262 1109.61 282.063 1111.94 277.023Z" fill="#E6E7E8"/>
<path d="M264.33 53.7336C270.081 53.9991 274.536 58.8951 274.27 64.6416C274.005 70.3881 269.109 74.8476 263.362 74.5821C257.616 74.3166 253.156 69.4206 253.422 63.6741C253.687 57.9231 258.583 53.4681 264.33 53.7336ZM263.425 73.1916C268.407 73.4211 272.646 69.5601 272.88 64.5786C273.109 59.5971 269.248 55.3581 264.267 55.1241C259.285 54.8946 255.046 58.7556 254.817 63.7371C254.587 68.7186 258.448 72.9576 263.43 73.1871L263.425 73.1916Z" fill="#E6E7E8"/>
<path d="M259.47 63.9531C259.358 66.3696 261.225 68.4215 263.642 68.534C266.058 68.6465 268.11 66.7791 268.223 64.3626C268.335 61.9461 266.468 59.8941 264.051 59.7816C261.635 59.6691 259.583 61.5366 259.47 63.9531Z" fill="#E6E7E8"/>
<path d="M926.147 112.506C928.547 110.32 928.719 106.602 926.533 104.203C924.347 101.804 920.63 101.631 918.231 103.818C915.832 106.004 915.659 109.721 917.845 112.12C920.031 114.519 923.748 114.692 926.147 112.506Z" fill="#E6E7E8"/>
<path d="M1016.16 198.346C1016.03 201.118 1018.17 203.467 1020.94 203.597C1023.71 203.728 1026.06 201.586 1026.19 198.814C1026.32 196.042 1024.18 193.693 1021.41 193.562C1018.64 193.432 1016.29 195.574 1016.16 198.346Z" fill="#E6E7E8"/>
<path d="M922.415 214.177C930.159 214.537 936.167 221.129 935.807 228.874C935.447 236.618 928.854 242.626 921.11 242.266C913.365 241.906 907.358 235.313 907.718 227.569C908.078 219.824 914.67 213.817 922.415 214.177ZM921.173 240.871C928.148 241.195 934.088 235.781 934.412 228.806C934.736 221.831 929.322 215.891 922.347 215.567C915.372 215.243 909.432 220.657 909.108 227.632C908.784 234.607 914.198 240.547 921.173 240.871Z" fill="#E6E7E8"/>
<path d="M916.637 227.983C916.506 230.813 918.693 233.216 921.524 233.347C924.354 233.477 926.757 231.29 926.888 228.46C927.018 225.629 924.831 223.226 922.001 223.096C919.17 222.965 916.767 225.152 916.637 227.983Z" fill="#E6E7E8"/>
<path d="M1115.81 168.587C1115.68 171.436 1117.88 173.852 1120.73 173.987C1123.58 174.122 1125.99 171.917 1126.13 169.069C1126.26 166.22 1124.06 163.804 1121.21 163.669C1118.36 163.538 1115.95 165.739 1115.81 168.587Z" fill="#E6E7E8"/>
<path d="M1132.49 130.555C1135.13 128.143 1135.32 124.041 1132.91 121.394C1130.5 118.747 1126.4 118.557 1123.75 120.969C1121.11 123.381 1120.91 127.482 1123.33 130.129C1125.74 132.776 1129.84 132.967 1132.49 130.555Z" fill="#E6E7E8"/>
<path d="M1131.92 75.2885C1131.79 78.074 1133.95 80.441 1136.73 80.5715C1139.52 80.702 1141.88 78.5465 1142.01 75.761C1142.14 72.9755 1139.99 70.6085 1137.2 70.478C1134.42 70.3475 1132.05 72.503 1131.92 75.2885Z" fill="#E6E7E8"/>
<path d="M1445.36 701.063C1455.16 701.518 1462.76 709.861 1462.3 719.662C1461.85 729.463 1453.5 737.063 1443.7 736.609C1433.9 736.154 1426.3 727.811 1426.76 718.01C1427.21 708.209 1435.55 700.609 1445.36 701.063ZM1443.77 735.218C1452.8 735.637 1460.49 728.63 1460.91 719.599C1461.33 710.567 1454.32 702.877 1445.29 702.458C1436.26 702.04 1428.57 709.046 1428.15 718.078C1427.73 727.109 1434.74 734.8 1443.77 735.218Z" fill="#E6E7E8"/>
<path d="M1445.03 707.989C1451.01 708.268 1455.65 713.357 1455.37 719.338C1455.09 725.318 1450 729.958 1444.02 729.679C1438.04 729.4 1433.4 724.31 1433.68 718.325C1433.96 712.345 1439.05 707.705 1445.03 707.984L1445.03 707.989ZM1444.09 728.293C1449.3 728.536 1453.74 724.49 1453.98 719.279C1454.22 714.064 1450.18 709.627 1444.97 709.384C1439.75 709.141 1435.32 713.186 1435.07 718.397C1434.83 723.613 1438.88 728.05 1444.09 728.293Z" fill="#E6E7E8"/>
<path d="M1439.43 718.6C1439.3 721.417 1441.48 723.802 1444.29 723.932C1447.11 724.063 1449.49 721.889 1449.63 719.072C1449.76 716.255 1447.58 713.87 1444.77 713.74C1441.95 713.609 1439.56 715.783 1439.43 718.6Z" fill="#E6E7E8"/>
<path d="M1290.39 289.129C1304.13 289.768 1314.79 301.468 1314.15 315.206C1313.51 328.945 1301.81 339.605 1288.07 338.966C1274.33 338.327 1263.67 326.627 1264.31 312.889C1264.95 299.146 1276.65 288.49 1290.39 289.129ZM1288.13 337.576C1301.11 338.179 1312.16 328.117 1312.76 315.143C1313.36 302.17 1303.3 291.122 1290.33 290.519C1277.35 289.916 1266.31 299.978 1265.7 312.952C1265.1 325.925 1275.16 336.973 1288.13 337.576Z" fill="#E6E7E8"/>
<path d="M1289.88 299.92C1297.67 300.28 1303.72 306.913 1303.36 314.707C1303 322.501 1296.36 328.54 1288.57 328.18C1280.78 327.82 1274.74 321.187 1275.1 313.393C1275.46 305.603 1282.09 299.56 1289.88 299.92ZM1288.63 326.785C1295.66 327.113 1301.63 321.664 1301.96 314.639C1302.29 307.615 1296.84 301.639 1289.82 301.31C1282.79 300.982 1276.82 306.431 1276.49 313.456C1276.16 320.48 1281.61 326.456 1288.63 326.785Z" fill="#E6E7E8"/>
<path d="M1284.63 313.834C1284.51 316.376 1286.47 318.532 1289.02 318.649C1291.56 318.766 1293.71 316.804 1293.83 314.261C1293.95 311.719 1291.99 309.563 1289.44 309.446C1286.9 309.329 1284.75 311.291 1284.63 313.834Z" fill="#E6E7E8"/>
<path d="M1076.97 523.373C1079.19 519.602 1077.93 514.744 1074.16 512.525C1070.39 510.305 1065.53 511.563 1063.31 515.334C1061.09 519.106 1062.35 523.963 1066.12 526.183C1069.89 528.403 1074.75 527.145 1076.97 523.373Z" fill="#E6E7E8"/>
<path d="M589.721 325.3C589.577 328.378 591.957 330.992 595.035 331.132C598.113 331.276 600.728 328.895 600.867 325.817C601.011 322.739 598.631 320.125 595.553 319.985C592.475 319.841 589.86 322.222 589.721 325.3Z" fill="#E6E7E8"/>
<path d="M634.904 85.208C636.031 82.1376 634.455 78.7352 631.385 77.6085C628.314 76.4819 624.912 78.0576 623.785 81.128C622.659 84.1985 624.234 87.601 627.305 88.7276C630.375 89.8543 633.778 88.2785 634.904 85.208Z" fill="#E6E7E8"/>
<path d="M577.894 115.073C591.939 115.726 602.829 127.682 602.176 141.722C601.524 155.767 589.567 166.657 575.527 166.004C561.483 165.352 550.593 153.395 551.245 139.355C551.898 125.311 563.854 114.421 577.894 115.073ZM575.59 164.614C588.865 165.23 600.169 154.934 600.786 141.659C601.402 128.384 591.106 117.08 577.831 116.464C564.556 115.847 553.252 126.143 552.636 139.418C552.019 152.693 562.315 163.997 575.59 164.614Z" fill="#E6E7E8"/>
<path d="M577.525 123.07C587.16 123.52 594.63 131.719 594.184 141.353C593.734 150.988 585.535 158.458 575.901 158.012C566.266 157.562 558.796 149.363 559.242 139.729C559.692 130.094 567.891 122.624 577.525 123.07ZM575.964 156.617C584.829 157.031 592.38 150.151 592.789 141.286C593.203 132.421 586.323 124.874 577.458 124.46C568.593 124.046 561.046 130.927 560.632 139.792C560.218 148.657 567.099 156.208 575.964 156.617Z" fill="#E6E7E8"/>
<path d="M583.929 147.76C587.915 143.774 587.915 137.312 583.929 133.326C579.943 129.34 573.481 129.34 569.496 133.326C565.51 137.312 565.51 143.774 569.496 147.76C573.481 151.745 579.943 151.745 583.929 147.76Z" fill="#E6E7E8"/>
<path d="M1407.65 198.733C1407.53 201.226 1409.46 203.345 1411.96 203.458C1414.45 203.575 1416.57 201.644 1416.68 199.151C1416.8 196.658 1414.87 194.539 1412.37 194.426C1409.88 194.309 1407.76 196.24 1407.65 198.733Z" fill="#E6E7E8"/>
<path d="M82.0397 394.402C88.7447 394.712 93.9467 400.423 93.6362 407.128C93.3257 413.833 87.6152 419.035 80.9102 418.724C74.2052 418.414 69.0032 412.703 69.3137 405.998C69.6242 399.293 75.3347 394.091 82.0397 394.402ZM80.9732 417.333C86.9132 417.608 91.9667 413.005 92.2412 407.065C92.5157 401.125 87.9122 396.071 81.9722 395.792C76.0322 395.517 70.9787 400.121 70.7042 406.061C70.4297 412.001 75.0332 417.055 80.9732 417.329V417.333Z" fill="#E6E7E8"/>
<path d="M81.819 399.117C85.923 399.306 89.109 402.803 88.9155 406.907C88.7265 411.011 85.23 414.197 81.126 414.004C77.022 413.815 73.836 410.318 74.0295 406.214C74.2185 402.11 77.715 398.924 81.819 399.117ZM81.1935 412.613C84.5325 412.766 87.372 410.179 87.525 406.844C87.678 403.505 85.0905 400.666 81.756 400.513C78.417 400.36 75.5775 402.947 75.4245 406.282C75.2715 409.616 77.859 412.46 81.1935 412.613Z" fill="#E6E7E8"/>
<path d="M78.2414 406.412C78.1604 408.199 79.5375 409.711 81.324 409.796C83.1105 409.882 84.6224 408.5 84.7079 406.714C84.7889 404.927 83.4119 403.415 81.6254 403.33C79.8389 403.249 78.3269 404.626 78.2414 406.412Z" fill="#E6E7E8"/>
<path d="M61.9425 375.529C61.812 378.382 64.017 380.803 66.87 380.938C69.723 381.068 72.144 378.863 72.279 376.01C72.4095 373.157 70.2045 370.736 67.3515 370.601C64.4985 370.471 62.0775 372.676 61.9425 375.529Z" fill="#E6E7E8"/>
<path d="M50.1209 345.977C50.0399 347.723 51.3899 349.204 53.1359 349.285C54.8819 349.366 56.3624 348.016 56.4434 346.27C56.5244 344.524 55.1744 343.043 53.4284 342.962C51.6824 342.881 50.2019 344.231 50.1209 345.977Z" fill="#E6E7E8"/>
<path d="M46.9062 326.774C49.6441 324.036 49.6441 319.597 46.9062 316.859C44.1682 314.121 39.7291 314.121 36.9911 316.859C34.2531 319.597 34.2532 324.036 36.9911 326.774C39.7291 329.512 44.1682 329.512 46.9062 326.774Z" fill="#E6E7E8"/>
<path d="M1224.12 776.098C1225.14 773.034 1223.49 769.72 1220.43 768.695C1217.36 767.671 1214.05 769.324 1213.02 772.388C1212 775.452 1213.65 778.767 1216.72 779.791C1219.78 780.816 1223.09 779.163 1224.12 776.098Z" fill="#E6E7E8"/>
<path d="M1113.64 810.175C1118.3 806.131 1118.8 799.076 1114.75 794.419C1110.71 789.761 1103.65 789.264 1099 793.309C1094.34 797.353 1093.84 804.408 1097.89 809.065C1101.93 813.723 1108.98 814.22 1113.64 810.175Z" fill="#E6E7E8"/>
<path d="M1225.49 663.29C1225.49 663.29 1225.46 663.304 1225.45 663.308L863.253 770.062C863.176 770.084 863.1 770.053 863.059 769.985C863.019 769.918 863.028 769.832 863.086 769.778L1232.57 393.992C1232.62 393.943 1232.69 393.929 1232.76 393.956C1232.82 393.983 1232.86 394.046 1232.86 394.118L1225.57 663.151C1225.57 663.209 1225.54 663.263 1225.49 663.295V663.29ZM863.788 769.544L1225.23 663.011L1232.5 394.537L863.788 769.54V769.544Z" fill="#D1D3D4"/>
<path d="M863.293 770.044C863.248 770.071 863.19 770.075 863.14 770.053C863.077 770.026 863.032 769.963 863.037 769.891L872.973 104.809C872.973 104.741 873.013 104.687 873.072 104.656C873.13 104.629 873.202 104.638 873.252 104.678L1232.8 393.974C1232.83 394.006 1232.86 394.051 1232.86 394.096C1232.86 394.145 1232.85 394.19 1232.81 394.226L863.329 770.012C863.329 770.012 863.307 770.03 863.293 770.039V770.044ZM873.306 105.169L863.383 769.472L1232.43 394.127L873.306 105.169Z" fill="#D1D3D4"/>
<path d="M863.293 770.044C863.248 770.071 863.19 770.075 863.136 770.053L646.911 674.216C646.839 674.185 646.798 674.113 646.812 674.036L680.458 435.68C680.467 435.608 680.526 435.55 680.598 435.536C680.67 435.523 680.742 435.559 680.778 435.622L863.356 769.819C863.392 769.882 863.383 769.963 863.334 770.017C863.32 770.03 863.311 770.039 863.293 770.048V770.044ZM647.167 673.955L862.812 769.535L680.724 436.238L647.167 673.955Z" fill="#D1D3D4"/>
<path d="M680.715 435.847C680.715 435.847 680.683 435.86 680.67 435.865C680.625 435.874 680.575 435.865 680.539 435.842L442.777 286.766C442.723 286.73 442.692 286.672 442.696 286.609C442.701 286.546 442.741 286.487 442.8 286.465L873.072 104.651C873.139 104.624 873.22 104.642 873.265 104.696C873.315 104.75 873.324 104.831 873.283 104.894L680.769 435.779C680.755 435.806 680.733 435.824 680.71 435.842L680.715 435.847ZM443.236 286.654L680.566 435.46L872.734 105.173L443.236 286.658V286.654Z" fill="#D1D3D4"/>
<path d="M1441.48 152.527C1441.44 152.554 1441.39 152.558 1441.34 152.54L1134.66 47.1231C1134.59 47.1006 1134.55 47.0421 1134.54 46.9746C1134.53 46.9071 1134.57 46.8441 1134.62 46.8081L1333.18 -65.6559C1333.22 -65.6784 1333.27 -65.6829 1333.31 -65.6694C1333.36 -65.6559 1333.39 -65.6244 1333.42 -65.5839L1441.55 152.293C1441.58 152.356 1441.57 152.428 1441.52 152.482C1441.51 152.495 1441.49 152.509 1441.48 152.518L1441.48 152.527ZM1135.13 46.9251L1441.06 152.081L1333.2 -65.2599L1135.13 46.9251Z" fill="#A7A9AC"/>
<path d="M941.233 465.425C941.17 465.461 941.089 465.457 941.03 465.407C940.972 465.358 940.958 465.277 940.99 465.205L1134.56 46.8891C1134.59 46.8081 1134.68 46.7721 1134.77 46.7991L1441.45 152.216C1441.52 152.239 1441.56 152.293 1441.57 152.36C1441.57 152.428 1441.54 152.491 1441.48 152.527L941.233 465.425ZM1134.8 47.1726L941.543 464.827L1441 152.423L1134.8 47.1726Z" fill="#A7A9AC"/>
<path d="M1386.2 359.441C1386.2 359.441 1386.19 359.441 1386.18 359.446L1204.58 449.216C1204.51 449.252 1204.42 449.234 1204.37 449.171C1204.32 449.108 1204.32 449.018 1204.37 448.955L1441.26 152.27C1441.31 152.207 1441.4 152.189 1441.47 152.225C1441.54 152.261 1441.58 152.342 1441.56 152.423L1386.27 359.338C1386.26 359.383 1386.23 359.419 1386.2 359.441ZM1205.12 448.568L1385.96 359.171L1441.02 153.125L1205.12 448.568Z" fill="#A7A9AC"/>
<path d="M1110.99 697.774C1110.99 697.774 1110.95 697.792 1110.92 697.796C1110.86 697.805 1110.8 697.778 1110.76 697.729L941.008 465.385C940.972 465.335 940.963 465.268 940.99 465.209C941.017 465.151 941.071 465.115 941.134 465.11L1204.49 448.892C1204.55 448.892 1204.6 448.915 1204.64 448.96C1204.68 449.005 1204.69 449.068 1204.66 449.122L1111.06 697.684C1111.04 697.72 1111.02 697.751 1110.99 697.769V697.774ZM941.471 465.434L1110.85 697.27L1204.25 449.252L941.471 465.434Z" fill="#A7A9AC"/>
<path d="M944.982 554.656C944.932 554.687 944.869 554.687 944.815 554.66L766.862 463.819C766.781 463.778 766.746 463.679 766.786 463.594L839.663 304.964C839.69 304.901 839.754 304.865 839.821 304.865C839.889 304.865 839.951 304.906 839.974 304.969L945.049 554.444C945.076 554.512 945.063 554.588 945.009 554.638C945 554.647 944.991 554.651 944.982 554.66V554.656ZM767.164 463.589L944.554 554.143L839.812 305.459L767.164 463.589Z" fill="#808285"/>
<path d="M944.982 554.656C944.955 554.674 944.923 554.683 944.887 554.678C944.82 554.678 944.761 554.633 944.734 554.575L839.659 305.099C839.623 305.014 839.659 304.915 839.744 304.879L1151.48 155.159C1151.54 155.128 1151.62 155.141 1151.68 155.195C1151.73 155.249 1151.74 155.326 1151.71 155.393L945.049 554.588C945.035 554.615 945.013 554.642 944.986 554.656H944.982ZM840.042 305.117L944.91 554.102L1151.17 155.686L840.042 305.113V305.117Z" fill="#808285"/>
<path d="M1102.19 513.287C1102.19 513.287 1102.17 513.301 1102.15 513.305L944.936 554.674C944.86 554.692 944.779 554.66 944.743 554.588C944.707 554.516 944.72 554.431 944.783 554.377L1158.44 367.708C1158.51 367.654 1158.59 367.654 1158.65 367.699C1158.72 367.744 1158.74 367.829 1158.72 367.901L1102.27 513.202C1102.26 513.238 1102.23 513.269 1102.2 513.287H1102.19ZM945.557 554.156L1101.98 512.995L1158.14 368.428L945.553 554.156H945.557Z" fill="#808285"/>
<path d="M1345.47 296.324C1345.47 296.324 1345.45 296.333 1345.45 296.338L1158.61 368C1158.56 368.018 1158.51 368.014 1158.46 367.982C1158.41 367.951 1158.38 367.901 1158.38 367.847L1151.38 155.321C1151.38 155.258 1151.41 155.195 1151.47 155.164C1151.53 155.132 1151.59 155.137 1151.65 155.177L1345.48 296.041C1345.53 296.077 1345.56 296.14 1345.55 296.203C1345.54 296.257 1345.51 296.302 1345.47 296.329L1345.47 296.324ZM1158.72 367.595L1345.03 296.131L1151.73 155.659L1158.72 367.595Z" fill="#808285"/>
<path d="M842.008 303.205C843.119 304.384 843.065 306.238 841.891 307.354C840.712 308.465 838.858 308.411 837.742 307.237C836.63 306.058 836.684 304.204 837.859 303.088C839.038 301.976 840.892 302.03 842.008 303.205Z" fill="#808285"/>
<path d="M879.353 111.838C875.663 115.325 869.822 115.159 866.335 111.464C862.847 107.774 863.014 101.933 866.708 98.4456C870.398 94.9581 876.239 95.1246 879.727 98.8191C883.214 102.509 883.048 108.35 879.353 111.838ZM867.154 98.9181C863.725 102.158 863.567 107.585 866.807 111.019C870.047 114.448 875.474 114.605 878.908 111.365C882.337 108.125 882.494 102.698 879.254 99.2646C876.014 95.8356 870.587 95.6781 867.154 98.9181Z" fill="#808285"/>
<path d="M877.292 109.655C874.804 112.004 870.866 111.892 868.517 109.403C866.168 106.915 866.281 102.977 868.769 100.628C871.258 98.2792 875.195 98.3916 877.544 100.88C879.893 103.369 879.781 107.306 877.292 109.655ZM869.215 101.101C866.987 103.207 866.888 106.73 868.99 108.958C871.096 111.185 874.619 111.284 876.847 109.183C879.074 107.077 879.173 103.553 877.072 101.326C874.966 99.0981 871.442 98.9991 869.215 101.101Z" fill="#808285"/>
<path d="M875.159 103.13C876.271 104.309 876.217 106.163 875.042 107.279C873.863 108.391 872.009 108.337 870.893 107.162C869.777 105.988 869.836 104.129 871.01 103.013C872.189 101.902 874.043 101.956 875.159 103.13Z" fill="#808285"/>
<path d="M873.868 294.025C871.825 295.951 868.598 295.861 866.672 293.818C864.746 291.775 864.836 288.548 866.879 286.622C868.922 284.696 872.149 284.786 874.075 286.829C876.001 288.872 875.911 292.099 873.868 294.025ZM867.32 287.095C865.538 288.778 865.462 291.59 867.14 293.372C868.823 295.154 871.636 295.231 873.418 293.552C875.2 291.869 875.276 289.057 873.598 287.275C871.915 285.493 869.102 285.416 867.32 287.095Z" fill="#808285"/>
<path d="M872.504 288.31C873.616 289.489 873.562 291.343 872.387 292.459C871.208 293.57 869.354 293.516 868.238 292.342C867.127 291.163 867.181 289.309 868.355 288.193C869.534 287.081 871.388 287.135 872.504 288.31Z" fill="#808285"/>
<path d="M1019.44 217.772C1020.55 218.951 1020.5 220.805 1019.32 221.921C1018.14 223.033 1016.29 222.979 1015.17 221.804C1014.06 220.625 1014.11 218.771 1015.29 217.655C1016.47 216.544 1018.32 216.598 1019.44 217.772Z" fill="#808285"/>
<path d="M1046.75 239.602C1047.86 240.781 1047.81 242.635 1046.64 243.751C1045.46 244.862 1043.6 244.808 1042.49 243.634C1041.38 242.455 1041.43 240.601 1042.6 239.485C1043.78 238.373 1045.64 238.427 1046.75 239.602Z" fill="#808285"/>
<path d="M1069.9 201.244C1067.34 203.66 1063.3 203.543 1060.88 200.987C1058.46 198.431 1058.58 194.386 1061.14 191.969C1063.69 189.553 1067.74 189.67 1070.15 192.226C1072.57 194.782 1072.45 198.827 1069.9 201.244ZM1061.58 192.442C1059.29 194.611 1059.18 198.242 1061.35 200.542C1063.52 202.841 1067.15 202.94 1069.45 200.771C1071.75 198.602 1071.85 194.971 1069.68 192.671C1067.51 190.376 1063.88 190.273 1061.58 192.442Z" fill="#808285"/>
<path d="M1068.73 200.006C1066.85 201.775 1063.88 201.694 1062.12 199.817C1060.35 197.941 1060.43 194.975 1062.31 193.207C1064.18 191.434 1067.15 191.519 1068.92 193.396C1070.69 195.272 1070.6 198.238 1068.73 200.006ZM1062.75 193.679C1061.14 195.205 1061.06 197.756 1062.59 199.372C1064.11 200.987 1066.67 201.059 1068.28 199.534C1069.9 198.008 1069.97 195.457 1068.44 193.841C1066.92 192.226 1064.37 192.154 1062.75 193.679Z" fill="#808285"/>
<path d="M1067.65 194.593C1068.76 195.772 1068.71 197.626 1067.53 198.742C1066.36 199.853 1064.5 199.799 1063.39 198.625C1062.27 197.446 1062.33 195.592 1063.5 194.476C1064.68 193.364 1066.54 193.418 1067.65 194.593Z" fill="#808285"/>
<path d="M1153.57 153.571C1154.68 154.75 1154.63 156.604 1153.45 157.72C1152.27 158.831 1150.42 158.777 1149.3 157.603C1148.19 156.424 1148.25 154.57 1149.42 153.454C1150.6 152.342 1152.45 152.396 1153.57 153.571Z" fill="#808285"/>
<path d="M1137.09 44.7202C1138.2 45.8992 1138.14 47.7531 1136.97 48.8691C1135.79 49.9806 1133.94 49.9266 1132.82 48.7521C1131.71 47.5731 1131.76 45.7191 1132.94 44.6031C1134.11 43.4871 1135.97 43.5457 1137.09 44.7202Z" fill="#808285"/>
<path d="M769.18 461.546C770.292 462.725 770.238 464.579 769.063 465.695C767.884 466.807 766.03 466.753 764.914 465.578C763.803 464.399 763.857 462.545 765.031 461.429C766.21 460.318 768.064 460.372 769.18 461.546Z" fill="#808285"/>
<path d="M950.287 559.871C947.132 562.855 942.137 562.711 939.154 559.552C936.175 556.397 936.314 551.402 939.473 548.419C942.628 545.435 947.623 545.579 950.606 548.738C953.59 551.897 953.446 556.888 950.287 559.871ZM939.919 548.896C937.021 551.632 936.89 556.213 939.626 559.106C942.362 562.004 946.943 562.135 949.837 559.399C952.73 556.663 952.865 552.082 950.129 549.188C947.393 546.29 942.812 546.16 939.919 548.896Z" fill="#808285"/>
<path d="M947.011 552.131C948.122 553.31 948.068 555.164 946.894 556.28C945.715 557.392 943.861 557.338 942.745 556.163C941.633 554.984 941.687 553.13 942.862 552.014C944.041 550.903 945.895 550.957 947.011 552.131Z" fill="#808285"/>
<path d="M944.684 462.244C946.466 464.129 946.381 467.099 944.495 468.881C942.61 470.663 939.64 470.578 937.858 468.692C936.076 466.807 936.161 463.837 938.047 462.055C939.932 460.273 942.902 460.358 944.684 462.244Z" fill="#808285"/>
<path d="M1450.23 161.734C1445.08 166.607 1436.92 166.373 1432.04 161.216C1427.17 156.059 1427.4 147.901 1432.56 143.027C1437.72 138.154 1445.88 138.388 1450.75 143.545C1455.62 148.702 1455.39 156.86 1450.23 161.734ZM1433.01 143.5C1428.12 148.126 1427.89 155.87 1432.52 160.771C1437.15 165.667 1444.89 165.887 1449.79 161.261C1454.69 156.635 1454.91 148.891 1450.28 143.995C1445.66 139.099 1437.91 138.878 1433.01 143.5Z" fill="#808285"/>
<path d="M1446.75 158.053C1443.63 161.005 1438.68 160.865 1435.72 157.738C1432.77 154.61 1432.91 149.665 1436.04 146.708C1439.17 143.756 1444.11 143.896 1447.07 147.023C1450.02 150.151 1449.88 155.096 1446.75 158.053ZM1436.49 147.185C1433.62 149.894 1433.49 154.426 1436.2 157.292C1438.91 160.159 1443.44 160.289 1446.31 157.58C1449.17 154.871 1449.31 150.34 1446.6 147.473C1443.89 144.607 1439.36 144.476 1436.49 147.185Z" fill="#808285"/>
<path d="M1443.64 150.259C1442.47 149.021 1440.52 148.963 1439.27 150.133C1438.03 151.303 1437.98 153.256 1439.15 154.498C1440.32 155.735 1442.27 155.794 1443.51 154.624C1444.75 153.454 1444.81 151.501 1443.64 150.259Z" fill="#808285"/>
<path d="M1347.42 294.259C1346.36 293.138 1344.59 293.089 1343.47 294.146C1342.35 295.204 1342.3 296.972 1343.36 298.093C1344.41 299.213 1346.18 299.263 1347.3 298.205C1348.42 297.148 1348.47 295.379 1347.42 294.259Z" fill="#808285"/>
<path d="M1335.46 285.664C1334.42 284.575 1332.71 284.525 1331.62 285.556C1330.53 286.586 1330.48 288.301 1331.51 289.39C1332.54 290.479 1334.26 290.528 1335.35 289.498C1336.44 288.467 1336.49 286.753 1335.46 285.664Z" fill="#808285"/>
<path d="M1319.78 305.158C1318.99 304.33 1317.69 304.294 1316.86 305.072C1316.03 305.855 1316 307.16 1316.78 307.988C1317.56 308.816 1318.87 308.852 1319.7 308.074C1320.52 307.291 1320.56 305.986 1319.78 305.158Z" fill="#808285"/>
<path d="M1286.8 254.713C1284.85 256.558 1281.76 256.468 1279.91 254.515C1278.07 252.562 1278.16 249.47 1280.11 247.625C1282.06 245.78 1285.15 245.87 1287 247.823C1288.84 249.776 1288.76 252.868 1286.8 254.713ZM1280.56 248.102C1278.86 249.7 1278.79 252.377 1280.38 254.069C1281.98 255.761 1284.66 255.838 1286.36 254.24C1288.05 252.643 1288.12 249.965 1286.53 248.273C1284.93 246.581 1282.25 246.505 1280.56 248.102H1280.56Z" fill="#808285"/>
<path d="M1284.94 249.767C1284.17 248.944 1282.87 248.908 1282.05 249.686C1281.23 250.46 1281.19 251.756 1281.97 252.58C1282.74 253.403 1284.04 253.439 1284.86 252.661C1285.69 251.887 1285.72 250.591 1284.94 249.767Z" fill="#808285"/>
<path d="M1387.89 357.614C1386.96 356.633 1385.41 356.588 1384.43 357.515C1383.45 358.442 1383.4 359.99 1384.33 360.971C1385.26 361.952 1386.81 361.997 1387.79 361.07C1388.77 360.143 1388.81 358.595 1387.89 357.614Z" fill="#808285"/>
<path d="M1234.72 392.188C1233.66 391.063 1231.89 391.013 1230.76 392.075C1229.64 393.137 1229.59 394.91 1230.65 396.035C1231.71 397.16 1233.49 397.21 1234.61 396.148C1235.74 395.086 1235.78 393.313 1234.72 392.188Z" fill="#808285"/>
<path d="M1206.83 446.867C1205.61 445.585 1203.59 445.526 1202.3 446.737C1201.02 447.952 1200.96 449.972 1202.17 451.259C1203.39 452.542 1205.41 452.6 1206.7 451.39C1207.98 450.175 1208.04 448.154 1206.83 446.867Z" fill="#808285"/>
<path d="M1104.77 510.628C1103.38 509.161 1101.06 509.093 1099.6 510.479C1098.13 511.865 1098.06 514.183 1099.45 515.65C1100.83 517.117 1103.15 517.184 1104.62 515.798C1106.09 514.412 1106.15 512.095 1104.77 510.628Z" fill="#808285"/>
<path d="M1057.19 456.259C1056.15 455.156 1054.41 455.107 1053.31 456.146C1052.21 457.186 1052.16 458.923 1053.2 460.025C1054.24 461.128 1055.97 461.177 1057.08 460.138C1058.18 459.098 1058.23 457.361 1057.19 456.259Z" fill="#808285"/>
<path d="M994.436 460.493C993.545 459.553 992.06 459.508 991.12 460.399C990.179 461.29 990.134 462.775 991.025 463.715C991.916 464.656 993.401 464.701 994.342 463.81C995.282 462.919 995.327 461.434 994.436 460.493Z" fill="#808285"/>
<path d="M1019.51 423.854C1016.88 426.338 1012.72 426.221 1010.23 423.589C1007.75 420.956 1007.86 416.794 1010.5 414.31C1013.13 411.826 1017.29 411.943 1019.78 414.575C1022.26 417.208 1022.14 421.37 1019.51 423.854ZM1010.94 414.782C1008.57 417.023 1008.46 420.772 1010.7 423.143C1012.94 425.515 1016.69 425.623 1019.06 423.382C1021.44 421.141 1021.54 417.392 1019.3 415.021C1017.06 412.649 1013.31 412.541 1010.94 414.782Z" fill="#808285"/>
<path d="M1016.74 417.437C1015.83 416.474 1014.32 416.434 1013.35 417.343C1012.39 418.252 1012.35 419.768 1013.26 420.731C1014.17 421.694 1015.69 421.735 1016.65 420.826C1017.61 419.917 1017.65 418.4 1016.74 417.437Z" fill="#808285"/>
<path d="M972.13 503.63C971.216 502.663 969.691 502.618 968.719 503.531C967.751 504.445 967.706 505.97 968.62 506.942C969.533 507.91 971.059 507.955 972.031 507.041C972.998 506.128 973.043 504.602 972.13 503.63Z" fill="#808285"/>
<path d="M984.707 519.569C983.56 518.354 981.643 518.3 980.428 519.448C979.213 520.595 979.159 522.512 980.306 523.727C981.454 524.942 983.371 524.996 984.586 523.849C985.801 522.701 985.855 520.784 984.707 519.569Z" fill="#808285"/>
<path d="M998.261 539.297C997.366 538.348 995.872 538.307 994.927 539.203C993.982 540.098 993.937 541.592 994.832 542.537C995.728 543.487 997.222 543.527 998.167 542.632C999.116 541.736 999.157 540.242 998.261 539.297Z" fill="#808285"/>
<path d="M1039.88 599.093C1037.38 601.456 1033.42 601.343 1031.06 598.841C1028.7 596.339 1028.81 592.388 1031.31 590.026C1033.82 587.663 1037.77 587.776 1040.13 590.278C1042.49 592.775 1042.38 596.731 1039.88 599.093ZM1031.76 590.498C1029.52 592.613 1029.42 596.155 1031.53 598.396C1033.65 600.637 1037.19 600.736 1039.43 598.621C1041.67 596.506 1041.77 592.964 1039.65 590.728C1037.54 588.491 1034 588.388 1031.75 590.503L1031.76 590.498Z" fill="#808285"/>
<path d="M1038.49 591.83C1036.98 590.233 1034.46 590.165 1032.87 591.668C1031.27 593.176 1031.21 595.691 1032.71 597.284C1034.22 598.882 1036.73 598.949 1038.32 597.446C1039.92 595.939 1039.99 593.423 1038.49 591.83Z" fill="#808285"/>
<path d="M1113.77 694.916C1112.27 693.332 1109.78 693.26 1108.19 694.759C1106.6 696.257 1106.53 698.75 1108.03 700.339C1109.53 701.923 1112.02 701.995 1113.61 700.496C1115.19 698.998 1115.27 696.505 1113.77 694.916Z" fill="#808285"/>
<path d="M1229.55 667.534C1227.13 669.82 1223.3 669.712 1221.01 667.291C1218.72 664.87 1218.83 661.036 1221.25 658.75C1223.67 656.464 1227.5 656.572 1229.79 658.993C1232.08 661.414 1231.97 665.248 1229.55 667.534ZM1221.7 659.222C1219.54 661.265 1219.44 664.681 1221.48 666.841C1223.53 669.001 1226.94 669.1 1229.1 667.057C1231.26 665.014 1231.36 661.598 1229.32 659.438C1227.28 657.278 1223.86 657.179 1221.7 659.222H1221.7Z" fill="#808285"/>
<path d="M1227.84 663.124C1227.88 661.715 1226.77 660.541 1225.36 660.501C1223.95 660.461 1222.78 661.57 1222.74 662.979C1222.7 664.387 1223.81 665.562 1225.21 665.602C1226.62 665.642 1227.8 664.532 1227.84 663.124Z" fill="#808285"/>
<path d="M865.772 767.47C864.431 766.052 862.195 765.989 860.777 767.326C859.36 768.667 859.297 770.903 860.633 772.321C861.974 773.738 864.211 773.801 865.628 772.465C867.046 771.124 867.109 768.887 865.772 767.47Z" fill="#808285"/>
<path d="M649.115 672.038C647.999 670.859 646.141 670.805 644.957 671.921C643.778 673.037 643.724 674.896 644.84 676.079C645.956 677.258 647.815 677.312 648.998 676.196C650.177 675.08 650.231 673.222 649.115 672.038Z" fill="#808285"/>
<path d="M686.33 441.742C683 444.887 677.731 444.739 674.585 441.409C671.44 438.079 671.588 432.809 674.918 429.664C678.248 426.518 683.518 426.667 686.663 430.001C689.809 433.331 689.66 438.601 686.33 441.746V441.742ZM675.368 430.136C672.299 433.034 672.16 437.89 675.058 440.963C677.956 444.032 682.811 444.172 685.885 441.274C688.954 438.376 689.093 433.52 686.195 430.447C683.297 427.378 678.442 427.238 675.368 430.136Z" fill="#808285"/>
<path d="M684.107 439.388C682.073 441.31 678.86 441.215 676.939 439.186C675.017 437.152 675.112 433.939 677.141 432.017C679.175 430.096 682.388 430.19 684.31 432.22C686.231 434.254 686.137 437.467 684.107 439.388ZM677.591 432.49C675.818 434.164 675.737 436.967 677.411 438.74C679.085 440.513 681.889 440.59 683.662 438.92C685.435 437.246 685.511 434.443 683.842 432.674C682.168 430.901 679.364 430.82 677.591 432.494V432.49Z" fill="#808285"/>
<path d="M682.357 434.065C681.452 433.106 679.945 433.066 678.986 433.97C678.028 434.875 677.987 436.382 678.892 437.341C679.796 438.299 681.304 438.34 682.262 437.435C683.221 436.531 683.261 435.023 682.357 434.065Z" fill="#808285"/>
<path d="M444.649 284.939C443.717 283.954 442.165 283.909 441.179 284.84C440.194 285.772 440.149 287.324 441.08 288.31C442.012 289.295 443.564 289.34 444.55 288.409C445.535 287.477 445.58 285.925 444.649 284.939Z" fill="#808285"/>
<path d="M875.015 523.219C870.344 527.629 862.955 527.417 858.545 522.751C854.135 518.08 854.347 510.691 859.013 506.281C863.684 501.871 871.073 502.082 875.483 506.749C879.893 511.42 879.682 518.809 875.015 523.219ZM859.463 506.753C855.053 510.916 854.855 517.891 859.018 522.301C863.18 526.711 870.16 526.909 874.565 522.746C878.975 518.584 879.173 511.609 875.011 507.199C870.848 502.789 863.873 502.591 859.463 506.753Z" fill="#808285"/>
<path d="M871.55 519.551C868.904 522.053 864.715 521.932 862.213 519.286C859.711 516.64 859.832 512.45 862.478 509.948C865.124 507.446 869.314 507.568 871.816 510.214C874.318 512.86 874.196 517.049 871.55 519.551ZM862.928 510.421C860.543 512.675 860.435 516.451 862.69 518.836C864.944 521.221 868.72 521.329 871.105 519.074C873.49 516.82 873.598 513.044 871.343 510.659C869.089 508.274 865.313 508.166 862.928 510.421Z" fill="#808285"/>
<path d="M868.58 513.274C867.766 512.41 866.402 512.369 865.538 513.188C864.674 514.007 864.634 515.366 865.453 516.23C866.267 517.094 867.631 517.135 868.495 516.316C869.359 515.501 869.399 514.138 868.58 513.274Z" fill="#808285"/>
<path d="M872.723 374.616C872.781 372.574 871.173 370.871 869.131 370.813C867.089 370.755 865.386 372.363 865.328 374.405C865.27 376.447 866.878 378.15 868.92 378.208C870.962 378.266 872.665 376.658 872.723 374.616Z" fill="#808285"/>
<path d="M1090.03 276.016C1089.04 274.967 1087.4 274.922 1086.35 275.912C1085.3 276.902 1085.26 278.549 1086.25 279.598C1087.24 280.646 1088.88 280.691 1089.93 279.701C1090.98 278.711 1091.02 277.064 1090.03 276.016Z" fill="#808285"/>
<path d="M1161.21 367.855C1161.26 366.327 1160.06 365.053 1158.53 365.01C1157 364.966 1155.73 366.169 1155.68 367.697C1155.64 369.225 1156.84 370.499 1158.37 370.542C1159.9 370.586 1161.17 369.383 1161.21 367.855Z" fill="#808285"/>
<path d="M1164.52 340.204C1159.74 344.713 1152.2 344.497 1147.69 339.722C1143.18 334.948 1143.4 327.401 1148.17 322.892C1152.94 318.383 1160.49 318.599 1165 323.374C1169.51 328.148 1169.29 335.695 1164.52 340.204ZM1148.62 323.365C1144.1 327.626 1143.9 334.763 1148.16 339.277C1152.42 343.79 1159.56 343.993 1164.07 339.731C1168.59 335.47 1168.79 328.333 1164.53 323.819C1160.27 319.306 1153.13 319.103 1148.62 323.365Z" fill="#D73828"/>
<path d="M1161.95 337.486C1158.68 340.577 1153.5 340.429 1150.41 337.157C1147.31 333.881 1147.46 328.702 1150.73 325.61C1154.01 322.519 1159.19 322.667 1162.28 325.939C1165.37 329.21 1165.22 334.39 1161.95 337.486ZM1151.18 326.083C1148.17 328.927 1148.03 333.697 1150.88 336.707C1153.73 339.718 1158.5 339.857 1161.51 337.009C1164.52 334.165 1164.66 329.395 1161.81 326.384C1158.97 323.369 1154.2 323.234 1151.18 326.083Z" fill="#D73828"/>
<path d="M1161.12 331.621C1161.15 328.989 1159.05 326.827 1156.42 326.792C1153.78 326.756 1151.62 328.861 1151.59 331.493C1151.55 334.125 1153.66 336.287 1156.29 336.322C1158.92 336.357 1161.08 334.253 1161.12 331.621Z" fill="#D73828"/>
<path d="M1233.32 434.024C1232.41 433.052 1230.87 433.007 1229.89 433.925C1228.92 434.843 1228.88 436.378 1229.8 437.354C1230.71 438.326 1232.25 438.371 1233.22 437.453C1234.2 436.535 1234.24 435.001 1233.32 434.024Z" fill="#808285"/>
<path d="M1233.31 413.347C1232.7 412.699 1231.67 412.667 1231.02 413.279C1230.38 413.891 1230.34 414.917 1230.96 415.565C1231.57 416.213 1232.59 416.245 1233.24 415.633C1233.89 415.021 1233.92 413.995 1233.31 413.347Z" fill="#808285"/>
<path d="M867.374 591.938C866.573 591.092 865.237 591.052 864.391 591.853C863.545 592.654 863.504 593.99 864.305 594.836C865.106 595.682 866.443 595.723 867.289 594.922C868.135 594.121 868.175 592.784 867.374 591.938Z" fill="#808285"/>
<path d="M782.203 615.712C781.091 614.533 779.233 614.479 778.054 615.595C776.875 616.706 776.821 618.565 777.937 619.744C779.048 620.923 780.907 620.977 782.086 619.861C783.265 618.749 783.319 616.891 782.203 615.712Z" fill="#808285"/>
<path d="M771.902 598.45C768.631 601.537 763.46 601.393 760.369 598.121C757.282 594.85 757.426 589.679 760.697 586.588C763.969 583.496 769.139 583.645 772.231 586.916C775.318 590.188 775.174 595.358 771.902 598.45ZM761.147 587.06C758.137 589.904 758.002 594.665 760.846 597.671C763.69 600.682 768.451 600.817 771.457 597.973C774.467 595.129 774.602 590.368 771.758 587.362C768.914 584.351 764.153 584.216 761.147 587.06Z" fill="#808285"/>
<path d="M769.931 589.09C768.037 587.083 764.873 586.993 762.866 588.887C760.859 590.782 760.769 593.945 762.664 595.952C764.558 597.959 767.722 598.049 769.729 596.155C771.736 594.26 771.826 591.097 769.931 589.09Z" fill="#808285"/>
<path d="M749.582 557.653C748.781 556.802 747.44 556.766 746.59 557.567C745.739 558.368 745.703 559.709 746.504 560.56C747.305 561.41 748.646 561.446 749.497 560.645C750.347 559.844 750.383 558.503 749.582 557.653Z" fill="#808285"/>
<path d="M608.944 215.792C608.287 215.095 607.189 215.068 606.496 215.72C605.798 216.377 605.771 217.475 606.424 218.168C607.076 218.861 608.179 218.893 608.872 218.24C609.565 217.588 609.596 216.49 608.944 215.792Z" fill="#808285"/>
<path d="M631.574 213.817C628.843 216.395 624.523 216.274 621.94 213.542C619.361 210.811 619.483 206.491 622.214 203.908C624.946 201.329 629.266 201.451 631.849 204.182C634.427 206.914 634.306 211.234 631.574 213.817ZM622.664 204.38C620.194 206.716 620.081 210.622 622.417 213.092C624.752 215.563 628.658 215.675 631.129 213.34C633.599 211.004 633.712 207.098 631.376 204.628C629.041 202.157 625.135 202.045 622.664 204.38Z" fill="#808285"/>
<path d="M629.68 206.234C628.231 204.7 625.81 204.628 624.271 206.081C622.736 207.53 622.664 209.951 624.118 211.49C625.567 213.025 627.988 213.097 629.527 211.643C631.061 210.194 631.133 207.773 629.68 206.234Z" fill="#808285"/>
<path d="M649.624 198.742C649.106 198.193 648.238 198.166 647.689 198.688C647.14 199.205 647.113 200.074 647.635 200.623C648.152 201.172 649.021 201.199 649.57 200.677C650.119 200.159 650.146 199.291 649.624 198.742Z" fill="#808285"/>
<path d="M679.994 185.183C678.752 183.865 676.678 183.806 675.359 185.053C674.041 186.295 673.982 188.369 675.229 189.688C676.475 191.006 678.545 191.065 679.864 189.818C681.182 188.572 681.241 186.502 679.994 185.183Z" fill="#808285"/>
<path d="M866.929 622.741C867.739 623.596 867.698 624.946 866.843 625.756C865.988 626.566 864.638 626.525 863.828 625.67C863.018 624.815 863.059 623.465 863.914 622.655C864.769 621.845 866.119 621.886 866.929 622.741Z" fill="#808285"/>
<path d="M869.449 648.008C866.906 650.411 862.879 650.294 860.476 647.752C858.073 645.209 858.19 641.182 860.732 638.779C863.275 636.376 867.302 636.493 869.705 639.035C872.108 641.578 871.996 645.605 869.449 648.008ZM861.182 639.256C858.901 641.411 858.797 645.025 860.953 647.306C863.108 649.588 866.722 649.691 869.003 647.536C871.285 645.38 871.388 641.767 869.233 639.485C867.077 637.204 863.464 637.1 861.182 639.256Z" fill="#808285"/>
<path d="M867.496 641.123C868.751 642.451 868.688 644.543 867.361 645.799C866.033 647.054 863.941 646.991 862.685 645.664C861.43 644.336 861.493 642.244 862.82 640.988C864.148 639.733 866.24 639.796 867.496 641.123Z" fill="#808285"/>
<path d="M866.69 668.645C865.556 669.716 863.761 669.667 862.685 668.533C861.614 667.399 861.664 665.603 862.798 664.528C863.932 663.457 865.727 663.506 866.803 664.64C867.874 665.774 867.824 667.57 866.69 668.645ZM863.248 665C862.375 665.828 862.334 667.21 863.158 668.083C863.986 668.956 865.367 668.996 866.24 668.173C867.113 667.345 867.154 665.963 866.326 665.09C865.502 664.217 864.116 664.177 863.243 665.005L863.248 665Z" fill="#808285"/>
<path d="M865.768 665.621C866.303 666.188 866.276 667.079 865.709 667.61C865.142 668.146 864.251 668.119 863.72 667.552C863.189 666.985 863.212 666.094 863.779 665.563C864.346 665.027 865.237 665.054 865.768 665.621Z" fill="#808285"/>
<path d="M1231.42 82.9926C1229.14 85.1436 1225.53 85.0401 1223.38 82.7631C1221.23 80.4861 1221.33 76.8771 1223.61 74.7261C1225.88 72.5751 1229.49 72.6741 1231.64 74.9556C1233.8 77.2326 1233.7 80.8416 1231.42 82.9926ZM1224.05 75.1986C1222.04 77.1066 1221.94 80.2971 1223.85 82.3176C1225.76 84.3336 1228.95 84.4281 1230.97 82.5201C1232.99 80.6121 1233.08 77.4216 1231.17 75.4011C1229.26 73.3851 1226.07 73.2906 1224.05 75.1986Z" fill="#808285"/>
<path d="M1229.9 81.3906C1228.5 82.7091 1226.3 82.6461 1224.98 81.2511C1223.66 79.8561 1223.72 77.6511 1225.12 76.3326C1226.51 75.0141 1228.72 75.0771 1230.04 76.4721C1231.36 77.8671 1231.29 80.0721 1229.9 81.3906ZM1225.57 76.8051C1224.43 77.8761 1224.38 79.6716 1225.45 80.8056C1226.52 81.9396 1228.32 81.9891 1229.45 80.9181C1230.59 79.8471 1230.64 78.0516 1229.57 76.9176C1228.49 75.7836 1226.7 75.7341 1225.57 76.8051Z" fill="#808285"/>
<path d="M1228.61 77.8221C1228.04 77.2146 1227.08 77.1876 1226.47 77.7591C1225.87 78.3306 1225.84 79.2891 1226.41 79.8966C1226.98 80.5041 1227.94 80.5311 1228.55 79.9596C1229.16 79.3881 1229.18 78.4296 1228.61 77.8221Z" fill="#808285"/>
<path d="M1244.27 82.3581C1243.35 81.3861 1241.83 81.3456 1240.86 82.2591C1239.88 83.1771 1239.84 84.7026 1240.76 85.6746C1241.68 86.6466 1243.2 86.6871 1244.17 85.7736C1245.14 84.8556 1245.19 83.3301 1244.27 82.3581Z" fill="#808285"/>
<path d="M1258.04 87.9696C1257.47 87.3756 1256.54 87.3486 1255.95 87.9111C1255.36 88.4736 1255.33 89.4051 1255.89 89.9991C1256.45 90.5931 1257.39 90.6201 1257.98 90.0576C1258.57 89.4951 1258.6 88.5636 1258.04 87.9696Z" fill="#808285"/>
<path d="M1271.19 90.8091C1269.94 89.4951 1267.87 89.4367 1266.56 90.6787C1265.24 91.9207 1265.18 93.9906 1266.43 95.3091C1267.67 96.6231 1269.74 96.6816 1271.06 95.4396C1272.37 94.1976 1272.43 92.1276 1271.19 90.8091Z" fill="#808285"/>
<path d="M737.243 339.92C736.208 338.822 734.48 338.773 733.382 339.812C732.284 340.847 732.235 342.575 733.274 343.673C734.314 344.771 736.037 344.821 737.135 343.781C738.233 342.746 738.283 341.018 737.243 339.92Z" fill="#808285"/>
<path d="M766.811 297.837C768.331 295.391 767.58 292.175 765.133 290.655C762.686 289.135 759.471 289.886 757.951 292.333C756.431 294.78 757.182 297.995 759.629 299.515C762.075 301.035 765.291 300.284 766.811 297.837Z" fill="#808285"/>
<path d="M783.679 260.023C782.702 258.992 781.078 258.943 780.047 259.919C779.017 260.896 778.967 262.52 779.944 263.551C780.92 264.581 782.545 264.631 783.575 263.654C784.606 262.678 784.655 261.053 783.679 260.023Z" fill="#808285"/>
<path d="M623.87 402.493C620.653 405.53 615.563 405.386 612.526 402.169C609.488 398.951 609.632 393.862 612.85 390.824C616.067 387.787 621.157 387.931 624.194 391.148C627.232 394.366 627.088 399.455 623.87 402.493ZM613.295 391.297C610.339 394.087 610.204 398.767 612.998 401.723C615.788 404.68 620.468 404.815 623.425 402.02C626.381 399.23 626.516 394.55 623.722 391.594C620.932 388.637 616.252 388.502 613.295 391.297Z" fill="#808285"/>
<path d="M621.017 394.145C619.631 392.678 617.314 392.611 615.847 393.997C614.38 395.383 614.312 397.7 615.698 399.167C617.084 400.634 619.402 400.702 620.869 399.316C622.336 397.93 622.403 395.612 621.017 394.145Z" fill="#808285"/>
</g>
<path d="M904.117 344.34C902.009 344.34 900.218 343.977 898.745 343.252C897.294 342.504 896.183 341.45 895.413 340.09C894.642 338.707 894.211 337.053 894.121 335.126C894.098 334.197 894.087 333.199 894.087 332.134C894.087 331.069 894.098 330.049 894.121 329.074C894.211 327.17 894.642 325.527 895.413 324.144C896.206 322.761 897.328 321.707 898.779 320.982C900.252 320.234 902.031 319.86 904.117 319.86C905.658 319.86 907.041 320.064 908.265 320.472C909.489 320.88 910.531 321.447 911.393 322.172C912.254 322.875 912.923 323.702 913.399 324.654C913.875 325.606 914.124 326.637 914.147 327.748C914.169 327.952 914.101 328.122 913.943 328.258C913.807 328.394 913.637 328.462 913.433 328.462H910.203C909.953 328.462 909.749 328.405 909.591 328.292C909.432 328.156 909.319 327.941 909.251 327.646C908.888 326.15 908.265 325.13 907.381 324.586C906.497 324.042 905.397 323.77 904.083 323.77C902.564 323.77 901.351 324.201 900.445 325.062C899.538 325.901 899.051 327.295 898.983 329.244C898.915 331.103 898.915 333.007 898.983 334.956C899.051 336.905 899.538 338.311 900.445 339.172C901.351 340.011 902.564 340.43 904.083 340.43C905.397 340.43 906.497 340.158 907.381 339.614C908.287 339.047 908.911 338.027 909.251 336.554C909.319 336.237 909.432 336.021 909.591 335.908C909.749 335.795 909.953 335.738 910.203 335.738H913.433C913.637 335.738 913.807 335.806 913.943 335.942C914.101 336.078 914.169 336.248 914.147 336.452C914.124 337.563 913.875 338.594 913.399 339.546C912.923 340.498 912.254 341.337 911.393 342.062C910.531 342.765 909.489 343.32 908.265 343.728C907.041 344.136 905.658 344.34 904.117 344.34ZM919.851 344C919.67 344 919.5 343.932 919.341 343.796C919.205 343.66 919.137 343.49 919.137 343.286C919.137 343.195 919.16 343.093 919.205 342.98L927.399 321.05C927.467 320.823 927.592 320.631 927.773 320.472C927.977 320.291 928.249 320.2 928.589 320.2H932.295C932.635 320.2 932.896 320.291 933.077 320.472C933.259 320.631 933.395 320.823 933.485 321.05L941.679 342.98C941.702 343.093 941.713 343.195 941.713 343.286C941.713 343.49 941.645 343.66 941.509 343.796C941.373 343.932 941.215 344 941.033 344H938.075C937.758 344 937.52 343.932 937.361 343.796C937.225 343.637 937.135 343.49 937.089 343.354L935.491 339.206H925.393L923.795 343.354C923.75 343.49 923.648 343.637 923.489 343.796C923.353 343.932 923.127 344 922.809 344H919.851ZM926.583 335.296H934.301L930.425 324.79L926.583 335.296ZM951.849 344C951.623 344 951.43 343.921 951.271 343.762C951.113 343.603 951.033 343.411 951.033 343.184V324.382H944.743C944.517 324.382 944.324 324.303 944.165 324.144C944.007 323.985 943.927 323.793 943.927 323.566V321.05C943.927 320.801 944.007 320.597 944.165 320.438C944.324 320.279 944.517 320.2 944.743 320.2H962.083C962.333 320.2 962.537 320.279 962.695 320.438C962.854 320.597 962.933 320.801 962.933 321.05V323.566C962.933 323.793 962.854 323.985 962.695 324.144C962.537 324.303 962.333 324.382 962.083 324.382H955.827V343.184C955.827 343.411 955.748 343.603 955.589 343.762C955.431 343.921 955.227 344 954.977 344H951.849ZM970.599 344C970.373 344 970.18 343.921 970.021 343.762C969.863 343.603 969.783 343.411 969.783 343.184V321.05C969.783 320.801 969.863 320.597 970.021 320.438C970.18 320.279 970.373 320.2 970.599 320.2H985.559C985.809 320.2 986.013 320.279 986.171 320.438C986.33 320.597 986.409 320.801 986.409 321.05V323.294C986.409 323.521 986.33 323.713 986.171 323.872C986.013 324.031 985.809 324.11 985.559 324.11H974.373V330.128H984.811C985.061 330.128 985.265 330.207 985.423 330.366C985.582 330.502 985.661 330.695 985.661 330.944V333.052C985.661 333.301 985.582 333.505 985.423 333.664C985.265 333.8 985.061 333.868 984.811 333.868H974.373V340.09H985.831C986.081 340.09 986.285 340.169 986.443 340.328C986.602 340.487 986.681 340.691 986.681 340.94V343.184C986.681 343.411 986.602 343.603 986.443 343.762C986.285 343.921 986.081 344 985.831 344H970.599ZM1003.38 344.34C1001.3 344.34 999.518 343.977 998.044 343.252C996.594 342.527 995.46 341.484 994.644 340.124C993.851 338.741 993.42 337.098 993.352 335.194C993.33 334.219 993.318 333.177 993.318 332.066C993.318 330.933 993.33 329.867 993.352 328.87C993.42 326.989 993.851 325.379 994.644 324.042C995.46 322.705 996.605 321.673 998.078 320.948C999.574 320.223 1001.34 319.86 1003.38 319.86C1005.04 319.86 1006.49 320.087 1007.73 320.54C1008.98 320.971 1010.01 321.537 1010.83 322.24C1011.67 322.92 1012.29 323.657 1012.7 324.45C1013.13 325.243 1013.36 325.98 1013.38 326.66C1013.4 326.864 1013.34 327.034 1013.21 327.17C1013.07 327.306 1012.89 327.374 1012.66 327.374H1009.16C1008.94 327.374 1008.77 327.329 1008.65 327.238C1008.54 327.147 1008.44 327.011 1008.35 326.83C1008.17 326.354 1007.88 325.889 1007.5 325.436C1007.11 324.96 1006.59 324.563 1005.93 324.246C1005.28 323.929 1004.43 323.77 1003.38 323.77C1001.84 323.77 1000.61 324.178 999.676 324.994C998.77 325.81 998.282 327.159 998.214 329.04C998.146 331.012 998.146 333.007 998.214 335.024C998.282 336.951 998.781 338.333 999.71 339.172C1000.66 340.011 1001.91 340.43 1003.45 340.43C1004.47 340.43 1005.38 340.249 1006.17 339.886C1006.99 339.523 1007.62 338.957 1008.07 338.186C1008.55 337.415 1008.79 336.429 1008.79 335.228V334.174H1004.64C1004.41 334.174 1004.22 334.095 1004.06 333.936C1003.9 333.777 1003.82 333.573 1003.82 333.324V331.522C1003.82 331.273 1003.9 331.069 1004.06 330.91C1004.22 330.751 1004.41 330.672 1004.64 330.672H1012.77C1013.02 330.672 1013.21 330.751 1013.34 330.91C1013.5 331.069 1013.58 331.273 1013.58 331.522V335.092C1013.58 336.996 1013.16 338.639 1012.32 340.022C1011.51 341.405 1010.33 342.47 1008.79 343.218C1007.27 343.966 1005.47 344.34 1003.38 344.34ZM1030.49 344.34C1028.47 344.34 1026.74 344.011 1025.29 343.354C1023.83 342.674 1022.7 341.643 1021.89 340.26C1021.07 338.855 1020.63 337.109 1020.56 335.024C1020.54 334.049 1020.53 333.086 1020.53 332.134C1020.53 331.182 1020.54 330.207 1020.56 329.21C1020.63 327.147 1021.08 325.425 1021.92 324.042C1022.76 322.659 1023.9 321.617 1025.35 320.914C1026.83 320.211 1028.54 319.86 1030.49 319.86C1032.44 319.86 1034.15 320.211 1035.62 320.914C1037.09 321.617 1038.25 322.659 1039.09 324.042C1039.93 325.425 1040.38 327.147 1040.45 329.21C1040.49 330.207 1040.52 331.182 1040.52 332.134C1040.52 333.086 1040.49 334.049 1040.45 335.024C1040.38 337.109 1039.94 338.855 1039.12 340.26C1038.31 341.643 1037.16 342.674 1035.69 343.354C1034.24 344.011 1032.5 344.34 1030.49 344.34ZM1030.49 340.43C1031.96 340.43 1033.16 339.999 1034.09 339.138C1035.02 338.254 1035.52 336.826 1035.59 334.854C1035.63 333.857 1035.66 332.939 1035.66 332.1C1035.66 331.239 1035.63 330.321 1035.59 329.346C1035.54 328.031 1035.29 326.966 1034.84 326.15C1034.41 325.311 1033.82 324.711 1033.07 324.348C1032.32 323.963 1031.46 323.77 1030.49 323.77C1029.54 323.77 1028.69 323.963 1027.94 324.348C1027.19 324.711 1026.59 325.311 1026.14 326.15C1025.7 326.966 1025.47 328.031 1025.42 329.346C1025.4 330.321 1025.39 331.239 1025.39 332.1C1025.39 332.939 1025.4 333.857 1025.42 334.854C1025.49 336.826 1025.99 338.254 1026.92 339.138C1027.85 339.999 1029.04 340.43 1030.49 340.43ZM1049.2 344C1048.97 344 1048.78 343.921 1048.62 343.762C1048.46 343.603 1048.38 343.411 1048.38 343.184V321.05C1048.38 320.801 1048.46 320.597 1048.62 320.438C1048.78 320.279 1048.97 320.2 1049.2 320.2H1058C1060.75 320.2 1062.91 320.835 1064.5 322.104C1066.08 323.373 1066.88 325.221 1066.88 327.646C1066.88 329.323 1066.46 330.717 1065.62 331.828C1064.8 332.939 1063.7 333.743 1062.32 334.242L1067.29 342.912C1067.35 343.048 1067.39 343.173 1067.39 343.286C1067.39 343.49 1067.31 343.66 1067.15 343.796C1067.01 343.932 1066.86 344 1066.67 344H1063.58C1063.19 344 1062.9 343.898 1062.7 343.694C1062.49 343.49 1062.33 343.286 1062.22 343.082L1057.83 335.024H1053.11V343.184C1053.11 343.411 1053.03 343.603 1052.87 343.762C1052.73 343.921 1052.54 344 1052.29 344H1049.2ZM1053.11 331.182H1057.9C1059.28 331.182 1060.32 330.876 1061 330.264C1061.68 329.629 1062.02 328.745 1062.02 327.612C1062.02 326.479 1061.68 325.595 1061 324.96C1060.34 324.303 1059.31 323.974 1057.9 323.974H1053.11V331.182ZM1080.83 344C1080.61 344 1080.41 343.921 1080.26 343.762C1080.1 343.603 1080.02 343.411 1080.02 343.184V335.5L1071.99 321.288C1071.97 321.243 1071.95 321.186 1071.93 321.118C1071.9 321.05 1071.89 320.982 1071.89 320.914C1071.89 320.71 1071.96 320.54 1072.1 320.404C1072.23 320.268 1072.39 320.2 1072.57 320.2H1075.6C1075.87 320.2 1076.09 320.268 1076.24 320.404C1076.43 320.54 1076.55 320.687 1076.62 320.846L1082.4 330.74L1088.14 320.846C1088.23 320.687 1088.36 320.54 1088.52 320.404C1088.7 320.268 1088.93 320.2 1089.2 320.2H1092.19C1092.39 320.2 1092.56 320.268 1092.7 320.404C1092.84 320.54 1092.9 320.71 1092.9 320.914C1092.9 320.982 1092.89 321.05 1092.87 321.118C1092.87 321.186 1092.85 321.243 1092.8 321.288L1084.78 335.5V343.184C1084.78 343.411 1084.7 343.603 1084.54 343.762C1084.38 343.921 1084.18 344 1083.93 344H1080.83ZM1116.68 344C1116.43 344 1116.23 343.921 1116.07 343.762C1115.93 343.603 1115.86 343.411 1115.86 343.184V325.572L1110.7 329.55C1110.49 329.686 1110.29 329.743 1110.08 329.72C1109.88 329.675 1109.7 329.55 1109.54 329.346L1108.11 327.51C1107.98 327.306 1107.92 327.091 1107.94 326.864C1107.99 326.637 1108.11 326.456 1108.32 326.32L1115.93 320.438C1116.07 320.325 1116.2 320.257 1116.34 320.234C1116.48 320.211 1116.62 320.2 1116.78 320.2H1119.77C1120 320.2 1120.19 320.279 1120.35 320.438C1120.51 320.597 1120.59 320.789 1120.59 321.016V343.184C1120.59 343.411 1120.51 343.603 1120.35 343.762C1120.19 343.921 1120 344 1119.77 344H1116.68Z" fill="#D73828"/>
<g filter="url(#filter0_f_104_662)">
<path d="M676.352 522.24C674.864 522.24 673.6 521.984 672.56 521.472C671.536 520.944 670.752 520.2 670.208 519.24C669.664 518.264 669.36 517.096 669.296 515.736C669.28 515.08 669.272 514.376 669.272 513.624C669.272 512.872 669.28 512.152 669.296 511.464C669.36 510.12 669.664 508.96 670.208 507.984C670.768 507.008 671.56 506.264 672.584 505.752C673.624 505.224 674.88 504.96 676.352 504.96C677.44 504.96 678.416 505.104 679.28 505.392C680.144 505.68 680.88 506.08 681.488 506.592C682.096 507.088 682.568 507.672 682.904 508.344C683.24 509.016 683.416 509.744 683.432 510.528C683.448 510.672 683.4 510.792 683.288 510.888C683.192 510.984 683.072 511.032 682.928 511.032H680.648C680.472 511.032 680.328 510.992 680.216 510.912C680.104 510.816 680.024 510.664 679.976 510.456C679.72 509.4 679.28 508.68 678.656 508.296C678.032 507.912 677.256 507.72 676.328 507.72C675.256 507.72 674.4 508.024 673.76 508.632C673.12 509.224 672.776 510.208 672.728 511.584C672.68 512.896 672.68 514.24 672.728 515.616C672.776 516.992 673.12 517.984 673.76 518.592C674.4 519.184 675.256 519.48 676.328 519.48C677.256 519.48 678.032 519.288 678.656 518.904C679.296 518.504 679.736 517.784 679.976 516.744C680.024 516.52 680.104 516.368 680.216 516.288C680.328 516.208 680.472 516.168 680.648 516.168H682.928C683.072 516.168 683.192 516.216 683.288 516.312C683.4 516.408 683.448 516.528 683.432 516.672C683.416 517.456 683.24 518.184 682.904 518.856C682.568 519.528 682.096 520.12 681.488 520.632C680.88 521.128 680.144 521.52 679.28 521.808C678.416 522.096 677.44 522.24 676.352 522.24ZM687.459 522C687.331 522 687.211 521.952 687.099 521.856C687.003 521.76 686.955 521.64 686.955 521.496C686.955 521.432 686.971 521.36 687.003 521.28L692.787 505.8C692.835 505.64 692.923 505.504 693.051 505.392C693.195 505.264 693.387 505.2 693.627 505.2H696.243C696.483 505.2 696.667 505.264 696.795 505.392C696.923 505.504 697.019 505.64 697.083 505.8L702.867 521.28C702.883 521.36 702.891 521.432 702.891 521.496C702.891 521.64 702.843 521.76 702.747 521.856C702.651 521.952 702.539 522 702.411 522H700.323C700.099 522 699.931 521.952 699.819 521.856C699.723 521.744 699.659 521.64 699.627 521.544L698.499 518.616H691.371L690.243 521.544C690.211 521.64 690.139 521.744 690.027 521.856C689.931 521.952 689.771 522 689.547 522H687.459ZM692.211 515.856H697.659L694.923 508.44L692.211 515.856ZM710.046 522C709.886 522 709.75 521.944 709.638 521.832C709.526 521.72 709.47 521.584 709.47 521.424V508.152H705.03C704.87 508.152 704.734 508.096 704.622 507.984C704.51 507.872 704.454 507.736 704.454 507.576V505.8C704.454 505.624 704.51 505.48 704.622 505.368C704.734 505.256 704.87 505.2 705.03 505.2H717.27C717.446 505.2 717.59 505.256 717.702 505.368C717.814 505.48 717.87 505.624 717.87 505.8V507.576C717.87 507.736 717.814 507.872 717.702 507.984C717.59 508.096 717.446 508.152 717.27 508.152H712.854V521.424C712.854 521.584 712.798 521.72 712.686 521.832C712.574 521.944 712.43 522 712.254 522H710.046ZM723.281 522C723.121 522 722.985 521.944 722.873 521.832C722.761 521.72 722.705 521.584 722.705 521.424V505.8C722.705 505.624 722.761 505.48 722.873 505.368C722.985 505.256 723.121 505.2 723.281 505.2H733.841C734.017 505.2 734.161 505.256 734.273 505.368C734.385 505.48 734.441 505.624 734.441 505.8V507.384C734.441 507.544 734.385 507.68 734.273 507.792C734.161 507.904 734.017 507.96 733.841 507.96H725.945V512.208H733.313C733.489 512.208 733.633 512.264 733.745 512.376C733.857 512.472 733.913 512.608 733.913 512.784V514.272C733.913 514.448 733.857 514.592 733.745 514.704C733.633 514.8 733.489 514.848 733.313 514.848H725.945V519.24H734.033C734.209 519.24 734.353 519.296 734.465 519.408C734.577 519.52 734.633 519.664 734.633 519.84V521.424C734.633 521.584 734.577 521.72 734.465 521.832C734.353 521.944 734.209 522 734.033 522H723.281ZM746.422 522.24C744.95 522.24 743.694 521.984 742.654 521.472C741.63 520.96 740.83 520.224 740.254 519.264C739.694 518.288 739.39 517.128 739.342 515.784C739.326 515.096 739.318 514.36 739.318 513.576C739.318 512.776 739.326 512.024 739.342 511.32C739.39 509.992 739.694 508.856 740.254 507.912C740.83 506.968 741.638 506.24 742.678 505.728C743.734 505.216 744.982 504.96 746.422 504.96C747.59 504.96 748.614 505.12 749.494 505.44C750.374 505.744 751.102 506.144 751.678 506.64C752.27 507.12 752.71 507.64 752.998 508.2C753.302 508.76 753.462 509.28 753.478 509.76C753.494 509.904 753.454 510.024 753.358 510.12C753.262 510.216 753.134 510.264 752.974 510.264H750.502C750.342 510.264 750.222 510.232 750.142 510.168C750.062 510.104 749.99 510.008 749.926 509.88C749.798 509.544 749.598 509.216 749.326 508.896C749.054 508.56 748.686 508.28 748.222 508.056C747.758 507.832 747.158 507.72 746.422 507.72C745.334 507.72 744.462 508.008 743.806 508.584C743.166 509.16 742.822 510.112 742.774 511.44C742.726 512.832 742.726 514.24 742.774 515.664C742.822 517.024 743.174 518 743.83 518.592C744.502 519.184 745.382 519.48 746.47 519.48C747.19 519.48 747.83 519.352 748.39 519.096C748.966 518.84 749.414 518.44 749.734 517.896C750.07 517.352 750.238 516.656 750.238 515.808V515.064H747.31C747.15 515.064 747.014 515.008 746.902 514.896C746.79 514.784 746.734 514.64 746.734 514.464V513.192C746.734 513.016 746.79 512.872 746.902 512.76C747.014 512.648 747.15 512.592 747.31 512.592H753.046C753.222 512.592 753.358 512.648 753.454 512.76C753.566 512.872 753.622 513.016 753.622 513.192V515.712C753.622 517.056 753.326 518.216 752.734 519.192C752.158 520.168 751.326 520.92 750.238 521.448C749.166 521.976 747.894 522.24 746.422 522.24ZM765.555 522.24C764.131 522.24 762.907 522.008 761.883 521.544C760.859 521.064 760.059 520.336 759.483 519.36C758.907 518.368 758.595 517.136 758.547 515.664C758.531 514.976 758.523 514.296 758.523 513.624C758.523 512.952 758.531 512.264 758.547 511.56C758.595 510.104 758.915 508.888 759.507 507.912C760.099 506.936 760.907 506.2 761.931 505.704C762.971 505.208 764.179 504.96 765.555 504.96C766.931 504.96 768.139 505.208 769.179 505.704C770.219 506.2 771.035 506.936 771.627 507.912C772.219 508.888 772.539 510.104 772.587 511.56C772.619 512.264 772.635 512.952 772.635 513.624C772.635 514.296 772.619 514.976 772.587 515.664C772.539 517.136 772.227 518.368 771.651 519.36C771.075 520.336 770.267 521.064 769.227 521.544C768.203 522.008 766.979 522.24 765.555 522.24ZM765.555 519.48C766.595 519.48 767.443 519.176 768.099 518.568C768.755 517.944 769.107 516.936 769.155 515.544C769.187 514.84 769.203 514.192 769.203 513.6C769.203 512.992 769.187 512.344 769.155 511.656C769.123 510.728 768.947 509.976 768.627 509.4C768.323 508.808 767.907 508.384 767.379 508.128C766.851 507.856 766.243 507.72 765.555 507.72C764.883 507.72 764.283 507.856 763.755 508.128C763.227 508.384 762.803 508.808 762.483 509.4C762.179 509.976 762.011 510.728 761.979 511.656C761.963 512.344 761.955 512.992 761.955 513.6C761.955 514.192 761.963 514.84 761.979 515.544C762.027 516.936 762.379 517.944 763.035 518.568C763.691 519.176 764.531 519.48 765.555 519.48ZM778.762 522C778.602 522 778.466 521.944 778.354 521.832C778.242 521.72 778.186 521.584 778.186 521.424V505.8C778.186 505.624 778.242 505.48 778.354 505.368C778.466 505.256 778.602 505.2 778.762 505.2H784.978C786.914 505.2 788.442 505.648 789.562 506.544C790.682 507.44 791.242 508.744 791.242 510.456C791.242 511.64 790.946 512.624 790.354 513.408C789.778 514.192 789.002 514.76 788.026 515.112L791.53 521.232C791.578 521.328 791.602 521.416 791.602 521.496C791.602 521.64 791.546 521.76 791.434 521.856C791.338 521.952 791.226 522 791.098 522H788.914C788.642 522 788.434 521.928 788.29 521.784C788.146 521.64 788.034 521.496 787.954 521.352L784.858 515.664H781.522V521.424C781.522 521.584 781.466 521.72 781.354 521.832C781.258 521.944 781.122 522 780.946 522H778.762ZM781.522 512.952H784.906C785.882 512.952 786.61 512.736 787.09 512.304C787.57 511.856 787.81 511.232 787.81 510.432C787.81 509.632 787.57 509.008 787.09 508.56C786.626 508.096 785.898 507.864 784.906 507.864H781.522V512.952ZM801.094 522C800.934 522 800.798 521.944 800.686 521.832C800.574 521.72 800.518 521.584 800.518 521.424V516L794.854 505.968C794.838 505.936 794.822 505.896 794.806 505.848C794.79 505.8 794.782 505.752 794.782 505.704C794.782 505.56 794.83 505.44 794.926 505.344C795.022 505.248 795.134 505.2 795.262 505.2H797.398C797.59 505.2 797.742 505.248 797.854 505.344C797.982 505.44 798.07 505.544 798.118 505.656L802.198 512.64L806.254 505.656C806.318 505.544 806.406 505.44 806.518 505.344C806.646 505.248 806.806 505.2 806.998 505.2H809.11C809.254 505.2 809.374 505.248 809.47 505.344C809.566 505.44 809.614 505.56 809.614 505.704C809.614 505.752 809.606 505.8 809.59 505.848C809.59 505.896 809.574 505.936 809.542 505.968L803.878 516V521.424C803.878 521.584 803.822 521.72 803.71 521.832C803.598 521.944 803.454 522 803.278 522H801.094ZM821.404 522C821.244 522 821.108 521.944 820.996 521.832C820.884 521.72 820.828 521.584 820.828 521.424V520.2C820.828 520.056 820.86 519.888 820.924 519.696C821.004 519.488 821.172 519.28 821.428 519.072L825.22 515.304C826.276 514.472 827.124 513.768 827.764 513.192C828.42 512.6 828.892 512.064 829.18 511.584C829.484 511.088 829.636 510.6 829.636 510.12C829.636 509.4 829.436 508.816 829.036 508.368C828.652 507.92 828.036 507.696 827.188 507.696C826.628 507.696 826.156 507.816 825.772 508.056C825.388 508.28 825.084 508.584 824.86 508.968C824.652 509.352 824.508 509.776 824.428 510.24C824.396 510.448 824.308 510.592 824.164 510.672C824.02 510.752 823.876 510.792 823.732 510.792H821.596C821.452 510.792 821.332 510.744 821.236 510.648C821.14 510.552 821.092 510.44 821.092 510.312C821.108 509.624 821.252 508.96 821.524 508.32C821.796 507.664 822.188 507.088 822.7 506.592C823.228 506.08 823.868 505.672 824.62 505.368C825.372 505.064 826.22 504.912 827.164 504.912C828.492 504.912 829.588 505.136 830.452 505.584C831.332 506.032 831.988 506.64 832.42 507.408C832.868 508.176 833.092 509.04 833.092 510C833.092 510.752 832.948 511.448 832.66 512.088C832.372 512.712 831.956 513.32 831.412 513.912C830.868 514.488 830.212 515.08 829.444 515.688L826.036 519.144H832.876C833.052 519.144 833.188 519.2 833.284 519.312C833.396 519.408 833.452 519.544 833.452 519.72V521.424C833.452 521.584 833.396 521.72 833.284 521.832C833.188 521.944 833.052 522 832.876 522H821.404Z" fill="#333538"/>
</g>
<g filter="url(#filter1_f_104_662)">
<path d="M1110.95 260.24C1109.46 260.24 1108.2 259.984 1107.16 259.472C1106.13 258.944 1105.35 258.2 1104.8 257.24C1104.26 256.264 1103.96 255.096 1103.89 253.736C1103.88 253.08 1103.87 252.376 1103.87 251.624C1103.87 250.872 1103.88 250.152 1103.89 249.464C1103.96 248.12 1104.26 246.96 1104.8 245.984C1105.36 245.008 1106.16 244.264 1107.18 243.752C1108.22 243.224 1109.48 242.96 1110.95 242.96C1112.04 242.96 1113.01 243.104 1113.88 243.392C1114.74 243.68 1115.48 244.08 1116.08 244.592C1116.69 245.088 1117.16 245.672 1117.5 246.344C1117.84 247.016 1118.01 247.744 1118.03 248.528C1118.04 248.672 1118 248.792 1117.88 248.888C1117.79 248.984 1117.67 249.032 1117.52 249.032H1115.24C1115.07 249.032 1114.92 248.992 1114.81 248.912C1114.7 248.816 1114.62 248.664 1114.57 248.456C1114.32 247.4 1113.88 246.68 1113.25 246.296C1112.63 245.912 1111.85 245.72 1110.92 245.72C1109.85 245.72 1109 246.024 1108.36 246.632C1107.72 247.224 1107.37 248.208 1107.32 249.584C1107.28 250.896 1107.28 252.24 1107.32 253.616C1107.37 254.992 1107.72 255.984 1108.36 256.592C1109 257.184 1109.85 257.48 1110.92 257.48C1111.85 257.48 1112.63 257.288 1113.25 256.904C1113.89 256.504 1114.33 255.784 1114.57 254.744C1114.62 254.52 1114.7 254.368 1114.81 254.288C1114.92 254.208 1115.07 254.168 1115.24 254.168H1117.52C1117.67 254.168 1117.79 254.216 1117.88 254.312C1118 254.408 1118.04 254.528 1118.03 254.672C1118.01 255.456 1117.84 256.184 1117.5 256.856C1117.16 257.528 1116.69 258.12 1116.08 258.632C1115.48 259.128 1114.74 259.52 1113.88 259.808C1113.01 260.096 1112.04 260.24 1110.95 260.24ZM1122.05 260C1121.93 260 1121.81 259.952 1121.69 259.856C1121.6 259.76 1121.55 259.64 1121.55 259.496C1121.55 259.432 1121.57 259.36 1121.6 259.28L1127.38 243.8C1127.43 243.64 1127.52 243.504 1127.65 243.392C1127.79 243.264 1127.98 243.2 1128.22 243.2H1130.84C1131.08 243.2 1131.26 243.264 1131.39 243.392C1131.52 243.504 1131.61 243.64 1131.68 243.8L1137.46 259.28C1137.48 259.36 1137.49 259.432 1137.49 259.496C1137.49 259.64 1137.44 259.76 1137.34 259.856C1137.25 259.952 1137.13 260 1137.01 260H1134.92C1134.69 260 1134.53 259.952 1134.41 259.856C1134.32 259.744 1134.25 259.64 1134.22 259.544L1133.09 256.616H1125.97L1124.84 259.544C1124.81 259.64 1124.73 259.744 1124.62 259.856C1124.53 259.952 1124.37 260 1124.14 260H1122.05ZM1126.81 253.856H1132.25L1129.52 246.44L1126.81 253.856ZM1144.64 260C1144.48 260 1144.34 259.944 1144.23 259.832C1144.12 259.72 1144.06 259.584 1144.06 259.424V246.152H1139.62C1139.46 246.152 1139.33 246.096 1139.22 245.984C1139.1 245.872 1139.05 245.736 1139.05 245.576V243.8C1139.05 243.624 1139.1 243.48 1139.22 243.368C1139.33 243.256 1139.46 243.2 1139.62 243.2H1151.86C1152.04 243.2 1152.18 243.256 1152.3 243.368C1152.41 243.48 1152.46 243.624 1152.46 243.8V245.576C1152.46 245.736 1152.41 245.872 1152.3 245.984C1152.18 246.096 1152.04 246.152 1151.86 246.152H1147.45V259.424C1147.45 259.584 1147.39 259.72 1147.28 259.832C1147.17 259.944 1147.02 260 1146.85 260H1144.64ZM1157.88 260C1157.72 260 1157.58 259.944 1157.47 259.832C1157.36 259.72 1157.3 259.584 1157.3 259.424V243.8C1157.3 243.624 1157.36 243.48 1157.47 243.368C1157.58 243.256 1157.72 243.2 1157.88 243.2H1168.44C1168.61 243.2 1168.76 243.256 1168.87 243.368C1168.98 243.48 1169.04 243.624 1169.04 243.8V245.384C1169.04 245.544 1168.98 245.68 1168.87 245.792C1168.76 245.904 1168.61 245.96 1168.44 245.96H1160.54V250.208H1167.91C1168.08 250.208 1168.23 250.264 1168.34 250.376C1168.45 250.472 1168.51 250.608 1168.51 250.784V252.272C1168.51 252.448 1168.45 252.592 1168.34 252.704C1168.23 252.8 1168.08 252.848 1167.91 252.848H1160.54V257.24H1168.63C1168.8 257.24 1168.95 257.296 1169.06 257.408C1169.17 257.52 1169.23 257.664 1169.23 257.84V259.424C1169.23 259.584 1169.17 259.72 1169.06 259.832C1168.95 259.944 1168.8 260 1168.63 260H1157.88ZM1181.02 260.24C1179.55 260.24 1178.29 259.984 1177.25 259.472C1176.23 258.96 1175.43 258.224 1174.85 257.264C1174.29 256.288 1173.99 255.128 1173.94 253.784C1173.92 253.096 1173.91 252.36 1173.91 251.576C1173.91 250.776 1173.92 250.024 1173.94 249.32C1173.99 247.992 1174.29 246.856 1174.85 245.912C1175.43 244.968 1176.23 244.24 1177.27 243.728C1178.33 243.216 1179.58 242.96 1181.02 242.96C1182.19 242.96 1183.21 243.12 1184.09 243.44C1184.97 243.744 1185.7 244.144 1186.27 244.64C1186.87 245.12 1187.31 245.64 1187.59 246.2C1187.9 246.76 1188.06 247.28 1188.07 247.76C1188.09 247.904 1188.05 248.024 1187.95 248.12C1187.86 248.216 1187.73 248.264 1187.57 248.264H1185.1C1184.94 248.264 1184.82 248.232 1184.74 248.168C1184.66 248.104 1184.59 248.008 1184.52 247.88C1184.39 247.544 1184.19 247.216 1183.92 246.896C1183.65 246.56 1183.28 246.28 1182.82 246.056C1182.35 245.832 1181.75 245.72 1181.02 245.72C1179.93 245.72 1179.06 246.008 1178.4 246.584C1177.76 247.16 1177.42 248.112 1177.37 249.44C1177.32 250.832 1177.32 252.24 1177.37 253.664C1177.42 255.024 1177.77 256 1178.43 256.592C1179.1 257.184 1179.98 257.48 1181.07 257.48C1181.79 257.48 1182.43 257.352 1182.99 257.096C1183.56 256.84 1184.01 256.44 1184.33 255.896C1184.67 255.352 1184.83 254.656 1184.83 253.808V253.064H1181.91C1181.75 253.064 1181.61 253.008 1181.5 252.896C1181.39 252.784 1181.33 252.64 1181.33 252.464V251.192C1181.33 251.016 1181.39 250.872 1181.5 250.76C1181.61 250.648 1181.75 250.592 1181.91 250.592H1187.64C1187.82 250.592 1187.95 250.648 1188.05 250.76C1188.16 250.872 1188.22 251.016 1188.22 251.192V253.712C1188.22 255.056 1187.92 256.216 1187.33 257.192C1186.75 258.168 1185.92 258.92 1184.83 259.448C1183.76 259.976 1182.49 260.24 1181.02 260.24ZM1200.15 260.24C1198.73 260.24 1197.5 260.008 1196.48 259.544C1195.45 259.064 1194.65 258.336 1194.08 257.36C1193.5 256.368 1193.19 255.136 1193.14 253.664C1193.13 252.976 1193.12 252.296 1193.12 251.624C1193.12 250.952 1193.13 250.264 1193.14 249.56C1193.19 248.104 1193.51 246.888 1194.1 245.912C1194.69 244.936 1195.5 244.2 1196.53 243.704C1197.57 243.208 1198.77 242.96 1200.15 242.96C1201.53 242.96 1202.73 243.208 1203.77 243.704C1204.81 244.2 1205.63 244.936 1206.22 245.912C1206.81 246.888 1207.13 248.104 1207.18 249.56C1207.21 250.264 1207.23 250.952 1207.23 251.624C1207.23 252.296 1207.21 252.976 1207.18 253.664C1207.13 255.136 1206.82 256.368 1206.25 257.36C1205.67 258.336 1204.86 259.064 1203.82 259.544C1202.8 260.008 1201.57 260.24 1200.15 260.24ZM1200.15 257.48C1201.19 257.48 1202.04 257.176 1202.69 256.568C1203.35 255.944 1203.7 254.936 1203.75 253.544C1203.78 252.84 1203.8 252.192 1203.8 251.6C1203.8 250.992 1203.78 250.344 1203.75 249.656C1203.72 248.728 1203.54 247.976 1203.22 247.4C1202.92 246.808 1202.5 246.384 1201.97 246.128C1201.45 245.856 1200.84 245.72 1200.15 245.72C1199.48 245.72 1198.88 245.856 1198.35 246.128C1197.82 246.384 1197.4 246.808 1197.08 247.4C1196.77 247.976 1196.61 248.728 1196.57 249.656C1196.56 250.344 1196.55 250.992 1196.55 251.6C1196.55 252.192 1196.56 252.84 1196.57 253.544C1196.62 254.936 1196.97 255.944 1197.63 256.568C1198.29 257.176 1199.13 257.48 1200.15 257.48ZM1213.36 260C1213.2 260 1213.06 259.944 1212.95 259.832C1212.84 259.72 1212.78 259.584 1212.78 259.424V243.8C1212.78 243.624 1212.84 243.48 1212.95 243.368C1213.06 243.256 1213.2 243.2 1213.36 243.2H1219.57C1221.51 243.2 1223.04 243.648 1224.16 244.544C1225.28 245.44 1225.84 246.744 1225.84 248.456C1225.84 249.64 1225.54 250.624 1224.95 251.408C1224.37 252.192 1223.6 252.76 1222.62 253.112L1226.13 259.232C1226.17 259.328 1226.2 259.416 1226.2 259.496C1226.2 259.64 1226.14 259.76 1226.03 259.856C1225.93 259.952 1225.82 260 1225.69 260H1223.51C1223.24 260 1223.03 259.928 1222.89 259.784C1222.74 259.64 1222.63 259.496 1222.55 259.352L1219.45 253.664H1216.12V259.424C1216.12 259.584 1216.06 259.72 1215.95 259.832C1215.85 259.944 1215.72 260 1215.54 260H1213.36ZM1216.12 250.952H1219.5C1220.48 250.952 1221.21 250.736 1221.69 250.304C1222.17 249.856 1222.41 249.232 1222.41 248.432C1222.41 247.632 1222.17 247.008 1221.69 246.56C1221.22 246.096 1220.49 245.864 1219.5 245.864H1216.12V250.952ZM1235.69 260C1235.53 260 1235.39 259.944 1235.28 259.832C1235.17 259.72 1235.11 259.584 1235.11 259.424V254L1229.45 243.968C1229.43 243.936 1229.42 243.896 1229.4 243.848C1229.38 243.8 1229.38 243.752 1229.38 243.704C1229.38 243.56 1229.42 243.44 1229.52 243.344C1229.62 243.248 1229.73 243.2 1229.86 243.2H1231.99C1232.18 243.2 1232.34 243.248 1232.45 243.344C1232.58 243.44 1232.66 243.544 1232.71 243.656L1236.79 250.64L1240.85 243.656C1240.91 243.544 1241 243.44 1241.11 243.344C1241.24 243.248 1241.4 243.2 1241.59 243.2H1243.7C1243.85 243.2 1243.97 243.248 1244.06 243.344C1244.16 243.44 1244.21 243.56 1244.21 243.704C1244.21 243.752 1244.2 243.8 1244.18 243.848C1244.18 243.896 1244.17 243.936 1244.14 243.968L1238.47 254V259.424C1238.47 259.584 1238.42 259.72 1238.3 259.832C1238.19 259.944 1238.05 260 1237.87 260H1235.69ZM1263.82 260C1263.66 260 1263.53 259.944 1263.42 259.832C1263.3 259.72 1263.25 259.584 1263.25 259.424V256.352H1255.64C1255.46 256.352 1255.32 256.296 1255.21 256.184C1255.11 256.072 1255.06 255.936 1255.06 255.776V254.144C1255.06 254.048 1255.08 253.936 1255.11 253.808C1255.16 253.664 1255.23 253.536 1255.33 253.424L1262.41 243.608C1262.62 243.336 1262.91 243.2 1263.3 243.2H1265.91C1266.07 243.2 1266.21 243.256 1266.32 243.368C1266.43 243.48 1266.49 243.616 1266.49 243.776V253.52H1268.62C1268.82 253.52 1268.96 253.576 1269.06 253.688C1269.17 253.784 1269.22 253.92 1269.22 254.096V255.776C1269.22 255.936 1269.17 256.072 1269.06 256.184C1268.94 256.296 1268.81 256.352 1268.65 256.352H1266.49V259.424C1266.49 259.584 1266.43 259.72 1266.32 259.832C1266.21 259.944 1266.07 260 1265.91 260H1263.82ZM1258.4 253.616H1263.32V246.68L1258.4 253.616Z" fill="#494C4E"/>
</g>
<g filter="url(#filter2_f_104_662)">
<path d="M478.264 403.18C477.148 403.18 476.2 402.988 475.42 402.604C474.652 402.208 474.064 401.65 473.656 400.93C473.248 400.198 473.02 399.322 472.972 398.302C472.96 397.81 472.954 397.282 472.954 396.718C472.954 396.154 472.96 395.614 472.972 395.098C473.02 394.09 473.248 393.22 473.656 392.488C474.076 391.756 474.67 391.198 475.438 390.814C476.218 390.418 477.16 390.22 478.264 390.22C479.08 390.22 479.812 390.328 480.46 390.544C481.108 390.76 481.66 391.06 482.116 391.444C482.572 391.816 482.926 392.254 483.178 392.758C483.43 393.262 483.562 393.808 483.574 394.396C483.586 394.504 483.55 394.594 483.466 394.666C483.394 394.738 483.304 394.774 483.196 394.774H481.486C481.354 394.774 481.246 394.744 481.162 394.684C481.078 394.612 481.018 394.498 480.982 394.342C480.79 393.55 480.46 393.01 479.992 392.722C479.524 392.434 478.942 392.29 478.246 392.29C477.442 392.29 476.8 392.518 476.32 392.974C475.84 393.418 475.582 394.156 475.546 395.188C475.51 396.172 475.51 397.18 475.546 398.212C475.582 399.244 475.84 399.988 476.32 400.444C476.8 400.888 477.442 401.11 478.246 401.11C478.942 401.11 479.524 400.966 479.992 400.678C480.472 400.378 480.802 399.838 480.982 399.058C481.018 398.89 481.078 398.776 481.162 398.716C481.246 398.656 481.354 398.626 481.486 398.626H483.196C483.304 398.626 483.394 398.662 483.466 398.734C483.55 398.806 483.586 398.896 483.574 399.004C483.562 399.592 483.43 400.138 483.178 400.642C482.926 401.146 482.572 401.59 482.116 401.974C481.66 402.346 481.108 402.64 480.46 402.856C479.812 403.072 479.08 403.18 478.264 403.18ZM486.594 403C486.498 403 486.408 402.964 486.324 402.892C486.252 402.82 486.216 402.73 486.216 402.622C486.216 402.574 486.228 402.52 486.252 402.46L490.59 390.85C490.626 390.73 490.692 390.628 490.788 390.544C490.896 390.448 491.04 390.4 491.22 390.4H493.182C493.362 390.4 493.5 390.448 493.596 390.544C493.692 390.628 493.764 390.73 493.812 390.85L498.15 402.46C498.162 402.52 498.168 402.574 498.168 402.622C498.168 402.73 498.132 402.82 498.06 402.892C497.988 402.964 497.904 403 497.808 403H496.242C496.074 403 495.948 402.964 495.864 402.892C495.792 402.808 495.744 402.73 495.72 402.658L494.874 400.462H489.528L488.682 402.658C488.658 402.73 488.604 402.808 488.52 402.892C488.448 402.964 488.328 403 488.16 403H486.594ZM490.158 398.392H494.244L492.192 392.83L490.158 398.392ZM503.534 403C503.414 403 503.312 402.958 503.228 402.874C503.144 402.79 503.102 402.688 503.102 402.568V392.614H499.772C499.652 392.614 499.55 392.572 499.466 392.488C499.382 392.404 499.34 392.302 499.34 392.182V390.85C499.34 390.718 499.382 390.61 499.466 390.526C499.55 390.442 499.652 390.4 499.772 390.4H508.952C509.084 390.4 509.192 390.442 509.276 390.526C509.36 390.61 509.402 390.718 509.402 390.85V392.182C509.402 392.302 509.36 392.404 509.276 392.488C509.192 392.572 509.084 392.614 508.952 392.614H505.64V402.568C505.64 402.688 505.598 402.79 505.514 402.874C505.43 402.958 505.322 403 505.19 403H503.534ZM513.461 403C513.341 403 513.239 402.958 513.155 402.874C513.071 402.79 513.029 402.688 513.029 402.568V390.85C513.029 390.718 513.071 390.61 513.155 390.526C513.239 390.442 513.341 390.4 513.461 390.4H521.381C521.513 390.4 521.621 390.442 521.705 390.526C521.789 390.61 521.831 390.718 521.831 390.85V392.038C521.831 392.158 521.789 392.26 521.705 392.344C521.621 392.428 521.513 392.47 521.381 392.47H515.459V395.656H520.985C521.117 395.656 521.225 395.698 521.309 395.782C521.393 395.854 521.435 395.956 521.435 396.088V397.204C521.435 397.336 521.393 397.444 521.309 397.528C521.225 397.6 521.117 397.636 520.985 397.636H515.459V400.93H521.525C521.657 400.93 521.765 400.972 521.849 401.056C521.933 401.14 521.975 401.248 521.975 401.38V402.568C521.975 402.688 521.933 402.79 521.849 402.874C521.765 402.958 521.657 403 521.525 403H513.461ZM530.816 403.18C529.712 403.18 528.77 402.988 527.99 402.604C527.222 402.22 526.622 401.668 526.19 400.948C525.77 400.216 525.542 399.346 525.506 398.338C525.494 397.822 525.488 397.27 525.488 396.682C525.488 396.082 525.494 395.518 525.506 394.99C525.542 393.994 525.77 393.142 526.19 392.434C526.622 391.726 527.228 391.18 528.008 390.796C528.8 390.412 529.736 390.22 530.816 390.22C531.692 390.22 532.46 390.34 533.12 390.58C533.78 390.808 534.326 391.108 534.758 391.48C535.202 391.84 535.532 392.23 535.748 392.65C535.976 393.07 536.096 393.46 536.108 393.82C536.12 393.928 536.09 394.018 536.018 394.09C535.946 394.162 535.85 394.198 535.73 394.198H533.876C533.756 394.198 533.666 394.174 533.606 394.126C533.546 394.078 533.492 394.006 533.444 393.91C533.348 393.658 533.198 393.412 532.994 393.172C532.79 392.92 532.514 392.71 532.166 392.542C531.818 392.374 531.368 392.29 530.816 392.29C530 392.29 529.346 392.506 528.854 392.938C528.374 393.37 528.116 394.084 528.08 395.08C528.044 396.124 528.044 397.18 528.08 398.248C528.116 399.268 528.38 400 528.872 400.444C529.376 400.888 530.036 401.11 530.852 401.11C531.392 401.11 531.872 401.014 532.292 400.822C532.724 400.63 533.06 400.33 533.3 399.922C533.552 399.514 533.678 398.992 533.678 398.356V397.798H531.482C531.362 397.798 531.26 397.756 531.176 397.672C531.092 397.588 531.05 397.48 531.05 397.348V396.394C531.05 396.262 531.092 396.154 531.176 396.07C531.26 395.986 531.362 395.944 531.482 395.944H535.784C535.916 395.944 536.018 395.986 536.09 396.07C536.174 396.154 536.216 396.262 536.216 396.394V398.284C536.216 399.292 535.994 400.162 535.55 400.894C535.118 401.626 534.494 402.19 533.678 402.586C532.874 402.982 531.92 403.18 530.816 403.18ZM545.166 403.18C544.098 403.18 543.18 403.006 542.412 402.658C541.644 402.298 541.044 401.752 540.612 401.02C540.18 400.276 539.946 399.352 539.91 398.248C539.898 397.732 539.892 397.222 539.892 396.718C539.892 396.214 539.898 395.698 539.91 395.17C539.946 394.078 540.186 393.166 540.63 392.434C541.074 391.702 541.68 391.15 542.448 390.778C543.228 390.406 544.134 390.22 545.166 390.22C546.198 390.22 547.104 390.406 547.884 390.778C548.664 391.15 549.276 391.702 549.72 392.434C550.164 393.166 550.404 394.078 550.44 395.17C550.464 395.698 550.476 396.214 550.476 396.718C550.476 397.222 550.464 397.732 550.44 398.248C550.404 399.352 550.17 400.276 549.738 401.02C549.306 401.752 548.7 402.298 547.92 402.658C547.152 403.006 546.234 403.18 545.166 403.18ZM545.166 401.11C545.946 401.11 546.582 400.882 547.074 400.426C547.566 399.958 547.83 399.202 547.866 398.158C547.89 397.63 547.902 397.144 547.902 396.7C547.902 396.244 547.89 395.758 547.866 395.242C547.842 394.546 547.71 393.982 547.47 393.55C547.242 393.106 546.93 392.788 546.534 392.596C546.138 392.392 545.682 392.29 545.166 392.29C544.662 392.29 544.212 392.392 543.816 392.596C543.42 392.788 543.102 393.106 542.862 393.55C542.634 393.982 542.508 394.546 542.484 395.242C542.472 395.758 542.466 396.244 542.466 396.7C542.466 397.144 542.472 397.63 542.484 398.158C542.52 399.202 542.784 399.958 543.276 400.426C543.768 400.882 544.398 401.11 545.166 401.11ZM555.072 403C554.952 403 554.85 402.958 554.766 402.874C554.682 402.79 554.64 402.688 554.64 402.568V390.85C554.64 390.718 554.682 390.61 554.766 390.526C554.85 390.442 554.952 390.4 555.072 390.4H559.734C561.186 390.4 562.332 390.736 563.172 391.408C564.012 392.08 564.432 393.058 564.432 394.342C564.432 395.23 564.21 395.968 563.766 396.556C563.334 397.144 562.752 397.57 562.02 397.834L564.648 402.424C564.684 402.496 564.702 402.562 564.702 402.622C564.702 402.73 564.66 402.82 564.576 402.892C564.504 402.964 564.42 403 564.324 403H562.686C562.482 403 562.326 402.946 562.218 402.838C562.11 402.73 562.026 402.622 561.966 402.514L559.644 398.248H557.142V402.568C557.142 402.688 557.1 402.79 557.016 402.874C556.944 402.958 556.842 403 556.71 403H555.072ZM557.142 396.214H559.68C560.412 396.214 560.958 396.052 561.318 395.728C561.678 395.392 561.858 394.924 561.858 394.324C561.858 393.724 561.678 393.256 561.318 392.92C560.97 392.572 560.424 392.398 559.68 392.398H557.142V396.214ZM571.82 403C571.7 403 571.598 402.958 571.514 402.874C571.43 402.79 571.388 402.688 571.388 402.568V398.5L567.14 390.976C567.128 390.952 567.116 390.922 567.104 390.886C567.092 390.85 567.086 390.814 567.086 390.778C567.086 390.67 567.122 390.58 567.194 390.508C567.266 390.436 567.35 390.4 567.446 390.4H569.048C569.192 390.4 569.306 390.436 569.39 390.508C569.486 390.58 569.552 390.658 569.588 390.742L572.648 395.98L575.69 390.742C575.738 390.658 575.804 390.58 575.888 390.508C575.984 390.436 576.104 390.4 576.248 390.4H577.832C577.94 390.4 578.03 390.436 578.102 390.508C578.174 390.58 578.21 390.67 578.21 390.778C578.21 390.814 578.204 390.85 578.192 390.886C578.192 390.922 578.18 390.952 578.156 390.976L573.908 398.5V402.568C573.908 402.688 573.866 402.79 573.782 402.874C573.698 402.958 573.59 403 573.458 403H571.82ZM591.409 403.18C590.569 403.18 589.843 403.078 589.231 402.874C588.619 402.67 588.109 402.406 587.701 402.082C587.305 401.746 587.005 401.386 586.801 401.002C586.597 400.606 586.489 400.216 586.477 399.832C586.477 399.724 586.513 399.64 586.585 399.58C586.669 399.508 586.765 399.472 586.873 399.472H588.493C588.613 399.472 588.715 399.496 588.799 399.544C588.883 399.592 588.955 399.688 589.015 399.832C589.123 400.156 589.297 400.414 589.537 400.606C589.789 400.798 590.077 400.936 590.401 401.02C590.725 401.092 591.067 401.128 591.427 401.128C592.147 401.128 592.717 400.96 593.137 400.624C593.569 400.276 593.785 399.784 593.785 399.148C593.785 398.512 593.587 398.056 593.191 397.78C592.795 397.492 592.243 397.348 591.535 397.348H589.681C589.549 397.348 589.441 397.312 589.357 397.24C589.273 397.156 589.231 397.048 589.231 396.916V396.16C589.231 396.04 589.255 395.938 589.303 395.854C589.363 395.758 589.423 395.68 589.483 395.62L592.705 392.47H587.557C587.425 392.47 587.317 392.428 587.233 392.344C587.161 392.26 587.125 392.158 587.125 392.038V390.85C587.125 390.718 587.161 390.61 587.233 390.526C587.317 390.442 587.425 390.4 587.557 390.4H595.279C595.411 390.4 595.519 390.442 595.603 390.526C595.687 390.61 595.729 390.718 595.729 390.85V391.93C595.729 392.038 595.705 392.134 595.657 392.218C595.609 392.302 595.555 392.374 595.495 392.434L592.381 395.638L592.597 395.656C593.329 395.716 593.977 395.884 594.541 396.16C595.117 396.424 595.561 396.814 595.873 397.33C596.197 397.846 596.359 398.494 596.359 399.274C596.359 400.09 596.143 400.792 595.711 401.38C595.291 401.956 594.709 402.4 593.965 402.712C593.221 403.024 592.369 403.18 591.409 403.18Z" fill="#494C4E"/>
</g>
<defs>
<filter id="filter0_f_104_662" x="668.272" y="503.912" width="166.18" height="19.328" filterUnits="userSpaceOnUse" color-interpolation-filters="sRGB">
<feFlood flood-opacity="0" result="BackgroundImageFix"/>
<feBlend mode="normal" in="SourceGraphic" in2="BackgroundImageFix" result="shape"/>
<feGaussianBlur stdDeviation="0.5" result="effect1_foregroundBlur_104_662"/>
</filter>
<filter id="filter1_f_104_662" x="1101.87" y="240.96" width="169.356" height="21.28" filterUnits="userSpaceOnUse" color-interpolation-filters="sRGB">
<feFlood flood-opacity="0" result="BackgroundImageFix"/>
<feBlend mode="normal" in="SourceGraphic" in2="BackgroundImageFix" result="shape"/>
<feGaussianBlur stdDeviation="1" result="effect1_foregroundBlur_104_662"/>
</filter>
<filter id="filter2_f_104_662" x="470.954" y="388.22" width="127.405" height="16.96" filterUnits="userSpaceOnUse" color-interpolation-filters="sRGB">
<feFlood flood-opacity="0" result="BackgroundImageFix"/>
<feBlend mode="normal" in="SourceGraphic" in2="BackgroundImageFix" result="shape"/>
<feGaussianBlur stdDeviation="1" result="effect1_foregroundBlur_104_662"/>
</filter>
<linearGradient id="paint0_linear_104_662" x1="55.2915" y1="933.019" x2="1566.68" y2="304.748" gradientUnits="userSpaceOnUse">
<stop stop-color="white"/>
<stop offset="0.359375" stop-color="#F2F3F3"/>
<stop offset="1" stop-color="#F8F4E9"/>
</linearGradient>
</defs>
</svg>
