<svg width="16" height="16" viewBox="0 0 16 16" fill="none" xmlns="http://www.w3.org/2000/svg">
<path fill-rule="evenodd" clip-rule="evenodd" d="M6.4838 2.1933C4.11254 2.81073 2.312 4.84224 2.03662 7.33341H4.70006C4.84953 5.49129 5.46607 3.72303 6.4838 2.1933ZM8 0.666748C3.94991 0.666748 0.666664 3.94999 0.666664 8.00008C0.666664 12.0502 3.94991 15.3334 8 15.3334C12.0501 15.3334 15.3333 12.0502 15.3333 8.00008C15.3333 3.94999 12.0501 0.666748 8 0.666748ZM9.51619 2.1933C10.5339 3.72303 11.1505 5.49129 11.2999 7.33341H13.9634C13.688 4.84224 11.8875 2.81073 9.51619 2.1933ZM9.9616 7.33341C9.79414 5.52463 9.11311 3.80137 8 2.36728C6.88688 3.80137 6.20586 5.52463 6.03839 7.33341H9.9616ZM6.03839 8.66675H9.9616C9.79414 10.4755 9.11311 12.1988 8 13.6329C6.88688 12.1988 6.20586 10.4755 6.03839 8.66675ZM4.70006 8.66675H2.03662C2.312 11.1579 4.11254 13.1894 6.48381 13.8069C5.46607 12.2771 4.84953 10.5089 4.70006 8.66675ZM9.51619 13.8069C10.5339 12.2771 11.1505 10.5089 11.2999 8.66675H13.9634C13.688 11.1579 11.8875 13.1894 9.51619 13.8069Z" fill="#D2D2D3"/>
</svg>
