<svg width="153" height="42" viewBox="0 0 153 42" fill="none" xmlns="http://www.w3.org/2000/svg">
<path d="M11.1305 29.8722C9.02558 29.8722 7.17324 29.5887 5.62227 29.0288C4.06177 28.4654 2.83363 27.6375 1.97357 26.5689C1.11589 25.5028 0.626299 24.1901 0.519089 22.6689C0.413071 21.1692 0.748994 19.4633 1.51852 17.6003C1.56498 17.4883 1.67338 17.4156 1.79369 17.4156H9.43775C10.1394 17.4156 10.6885 17.5895 11.0697 17.9314C11.4843 18.3043 11.5414 18.9988 11.2448 20.0577C11.1876 20.2829 11.1448 20.4544 11.1174 20.5676C10.9828 21.0989 10.9482 21.5539 11.0125 21.9244C11.0328 22.0411 11.0745 22.2853 11.6534 22.2853C12.6028 22.2853 13.2222 21.9053 13.5498 21.1215C13.8584 20.427 13.8393 19.8552 13.495 19.3668C13.121 18.826 12.5421 18.2959 11.7713 17.7873C11.0292 17.3025 10.1811 16.7795 9.17806 16.1887C8.237 15.6443 7.3817 14.9772 6.63957 14.2065C5.89983 13.4393 5.37926 12.5126 5.0898 11.4536C4.79676 10.3815 4.96948 9.07471 5.60202 7.56781C6.15594 6.16456 6.82064 4.96381 7.57468 4.0025C8.3311 3.03761 9.25192 2.24426 10.3109 1.64507C11.3604 1.05304 12.5897 0.62539 13.9656 0.374043C15.3331 0.126269 16.952 0 18.7745 0C20.8889 0 22.7449 0.290657 24.2911 0.866016C25.8539 1.44614 27.0809 2.28238 27.9374 3.34971C28.7974 4.41942 29.2799 5.73334 29.3704 7.25333C29.4598 8.7495 29.131 10.4375 28.3936 12.2684C28.3483 12.3815 28.2388 12.4554 28.1173 12.4554H20.4244C19.8216 12.4554 19.3022 12.3232 18.8782 12.0635C18.5399 11.855 18.1813 11.4119 18.3969 10.4827C18.4029 10.4589 18.4112 10.4363 18.4219 10.4148C18.4577 10.3457 18.5172 10.204 18.5958 9.92643C18.6816 9.64768 18.7221 9.52499 18.7531 9.45232C18.9115 8.86148 18.9663 8.36831 18.9139 7.98593C18.8972 7.85609 18.8651 7.59164 18.254 7.59164C17.6107 7.59164 17.1378 7.72625 16.8483 7.99189C16.5386 8.2754 16.3147 8.57678 16.1836 8.88649C15.8513 9.60837 15.862 10.1921 16.2158 10.6805C16.6136 11.2272 17.2081 11.7561 17.9812 12.2553C18.8377 12.8008 19.7311 13.3297 20.634 13.8277C21.6215 14.3792 22.5007 15.0308 23.2452 15.7658C24.0052 16.5305 24.5341 17.4466 24.8211 18.4877C25.1118 19.5562 24.9391 20.8416 24.3077 22.3103C23.7169 23.7243 23.0379 24.9239 22.2922 25.8733C21.5346 26.837 20.6197 27.6291 19.5726 28.2283C18.5399 28.8227 17.3177 29.2504 15.9382 29.5005C14.5707 29.7483 12.953 29.8746 11.1293 29.8746L11.1305 29.8722ZM52.7576 29.3945H45.6294C44.7562 29.3945 44.045 29.1837 43.5126 28.7667C43.0015 28.3653 42.6263 27.871 42.3988 27.2956L37.653 18.9023L33.4325 29.2087C33.3872 29.3207 33.2776 29.3933 33.1573 29.3933H23.8634C23.7645 29.3933 23.6716 29.3445 23.6156 29.2611C23.5596 29.1777 23.5501 29.0741 23.587 28.9824L34.4688 2.81009C34.75 2.09416 35.2205 1.52 35.8661 1.10783C36.513 0.701628 37.2027 0.496738 37.915 0.496738H44.9504C45.0492 0.496738 45.1422 0.54677 45.1981 0.628964C45.2529 0.711158 45.2637 0.815985 45.2267 0.907709L41.179 10.2302L49.3317 2.4289C49.8332 1.92144 50.5134 1.46877 51.3472 1.08877C52.1775 0.711158 53.059 0.519372 53.9679 0.519372H62.4363C62.5578 0.519372 62.6674 0.593227 62.7126 0.706393C62.7579 0.819559 62.7293 0.94821 62.6412 1.03279L46.4072 16.4865L53.0364 28.9871C53.0721 29.0788 53.0602 29.1825 53.0042 29.2635C52.9482 29.3445 52.8565 29.3933 52.7588 29.3933L52.7576 29.3945ZM98.9043 9.5238C98.9043 9.5238 98.9007 9.53213 98.8995 9.5369L96.8351 15.2464H93.3925L95.489 9.75013C95.657 9.33558 95.9476 8.96988 96.3515 8.66255C96.766 8.34806 97.2068 8.25872 97.5832 8.21226C98.2955 8.1265 98.7351 8.24443 98.9281 8.57559C99.0734 8.82693 99.0663 9.13665 98.9043 9.5238ZM108.321 4.37296C108.036 3.59391 107.532 2.90538 106.823 2.32764C106.133 1.75586 105.182 1.302 103.999 0.979182C102.832 0.659935 101.359 0.49793 99.6226 0.49793C98.0847 0.49793 96.7315 0.571785 95.5986 0.715923C94.4693 0.861251 93.4806 1.08401 92.6623 1.37705C91.8463 1.66771 91.1506 2.03818 90.5895 2.48012C90.0392 2.92325 89.5699 3.42952 89.1946 3.98463C88.6705 4.63384 88.2309 5.44864 87.8914 6.40399L79.0752 29.9115C79.0407 30.0032 79.0538 30.1057 79.1098 30.1855C79.1646 30.2653 79.2563 30.3141 79.354 30.3141H87.7914C87.9164 30.3141 88.0272 30.2367 88.0701 30.12L90.4263 23.7791H94.081L91.8737 29.9151C91.8403 30.0068 91.8546 30.1081 91.9106 30.1867C91.9654 30.2665 92.0571 30.3141 92.1536 30.3141H100.085C100.209 30.3141 100.321 30.2367 100.363 30.1212L108.317 8.99132C108.567 8.27659 108.684 7.53446 108.664 6.78518C108.716 5.93704 108.601 5.12462 108.321 4.37296ZM120.069 30.3141H103.09C102.993 30.3141 102.901 30.2665 102.845 30.1855C102.789 30.1045 102.777 30.002 102.811 29.9103L113.921 0.689716C113.965 0.574168 114.076 0.49793 114.2 0.49793H122.575C122.673 0.49793 122.764 0.545578 122.82 0.626581C122.876 0.707584 122.888 0.810029 122.854 0.901753L114.439 23.068H122.576C122.674 23.068 122.766 23.1156 122.822 23.1966C122.878 23.2764 122.889 23.3801 122.855 23.4706L120.349 30.1224C120.304 30.2379 120.194 30.3153 120.07 30.3153L120.069 30.3141ZM142.727 9.05565C142.727 9.05565 142.724 9.0616 142.723 9.06518L141.453 12.4983C141.284 12.914 140.994 13.2797 140.591 13.5859C140.2 13.8837 139.798 14.0338 139.395 14.0338H137.62L140.01 7.74411H141.97C142.455 7.74411 142.635 7.95258 142.729 8.10863C142.882 8.36474 142.882 8.67446 142.727 9.05565ZM152.479 5.22826C152.438 4.76249 152.342 4.32055 152.195 3.9072C152.047 3.49385 151.844 3.10789 151.592 2.75291C151.086 2.04771 150.401 1.48902 149.554 1.09235C148.709 0.698054 147.707 0.49793 146.576 0.49793H133.548C133.425 0.49793 133.314 0.574168 133.27 0.690907L122.302 29.9115C122.268 30.0032 122.28 30.1057 122.336 30.1855C122.392 30.2653 122.483 30.3141 122.581 30.3141H131.19C131.311 30.3141 131.422 30.2391 131.466 30.1247L134.71 21.9065H136.191C137.209 21.9065 138.197 21.8708 139.123 21.8005C140.041 21.7421 140.97 21.5897 141.886 21.3466C142.782 21.1072 143.65 20.7558 144.467 20.3019C145.283 19.8457 146.09 19.2227 146.864 18.4532C148.333 16.9951 149.377 15.4584 149.972 13.8825L151.996 8.21584C152.398 7.15208 152.562 6.14788 152.479 5.22826ZM63.2797 41.5771L63.0247 41.5723C62.9271 41.5712 62.8353 41.5211 62.7817 41.4389C62.7281 41.3567 62.7174 41.2543 62.7543 41.1638L65.9742 33.0134L67.2393 29.8734H63.5477C62.2719 29.8734 61.0425 29.6864 59.8954 29.3159C58.7125 28.9347 57.7453 28.2807 57.0186 27.373C56.2884 26.4594 55.8715 25.2407 55.7809 23.7529C55.6916 22.2829 56.093 20.4354 56.9745 18.2602L63.7037 0.712349C63.7478 0.596801 63.8586 0.521754 63.9813 0.521754H72.1423C72.2412 0.521754 72.3377 0.570594 72.3937 0.653979C72.4497 0.737365 72.464 0.841001 72.4258 0.932724L64.6436 19.9946C64.5078 20.4092 64.5221 20.7272 64.6877 20.9416C64.9914 21.3359 65.7729 21.3776 66.048 21.3597C66.054 21.3597 66.0611 21.3597 66.0671 21.3597H70.7581L79.0776 0.707584C79.1229 0.594418 79.2325 0.520563 79.354 0.520563H87.515C87.6127 0.520563 87.7092 0.569403 87.764 0.649214C87.82 0.730217 87.8354 0.832662 87.8009 0.924386L80.1997 20.7927L75.9685 32.0307C75.9685 32.0307 75.9649 32.0402 75.9626 32.045C75.2764 33.6245 74.7809 34.4298 73.9959 35.5376C73.2049 36.6526 72.371 37.5984 71.5169 38.3465C70.67 39.0946 69.8016 39.7009 68.938 40.1465C68.0826 40.5908 67.244 40.9196 66.4435 41.1256C65.4167 41.4187 64.3494 41.5712 63.2797 41.5759V41.5771Z" fill="#D73828"/>
</svg>
