<svg width="16" height="16" viewBox="0 0 16 16" fill="none" xmlns="http://www.w3.org/2000/svg">
<path fill-rule="evenodd" clip-rule="evenodd" d="M2.11442 2.1143C2.61452 1.6142 3.2928 1.33325 4.00004 1.33325C4.70728 1.33325 5.38556 1.6142 5.88566 2.1143C6.38576 2.6144 6.66671 3.29267 6.66671 3.99992V5.33325H9.33337V3.99992C9.33337 3.29267 9.61433 2.6144 10.1144 2.1143C10.6145 1.6142 11.2928 1.33325 12 1.33325C12.7073 1.33325 13.3856 1.6142 13.8857 2.1143C14.3858 2.6144 14.6667 3.29267 14.6667 3.99992C14.6667 4.70716 14.3858 5.38544 13.8857 5.88554C13.3856 6.38563 12.7073 6.66659 12 6.66659H10.6667V9.33325H12C12.7073 9.33325 13.3856 9.6142 13.8857 10.1143C14.3858 10.6144 14.6667 11.2927 14.6667 11.9999C14.6667 12.7072 14.3858 13.3854 13.8857 13.8855C13.3856 14.3856 12.7073 14.6666 12 14.6666C11.2928 14.6666 10.6145 14.3856 10.1144 13.8855C9.61433 13.3854 9.33337 12.7072 9.33337 11.9999V10.6666H6.66671V11.9999C6.66671 12.7072 6.38576 13.3854 5.88566 13.8855C5.38556 14.3856 4.70728 14.6666 4.00004 14.6666C3.2928 14.6666 2.61452 14.3856 2.11442 13.8855C1.61433 13.3854 1.33337 12.7072 1.33337 11.9999C1.33337 11.2927 1.61433 10.6144 2.11442 10.1143C2.61452 9.6142 3.2928 9.33325 4.00004 9.33325H5.33337V6.66659H4.00004C3.2928 6.66659 2.61452 6.38563 2.11442 5.88554C1.61433 5.38544 1.33337 4.70716 1.33337 3.99992C1.33337 3.29267 1.61433 2.6144 2.11442 2.1143ZM5.33337 5.33325V3.99992C5.33337 3.6463 5.1929 3.30716 4.94285 3.05711C4.6928 2.80706 4.35366 2.66659 4.00004 2.66659C3.64642 2.66659 3.30728 2.80706 3.05723 3.05711C2.80718 3.30716 2.66671 3.6463 2.66671 3.99992C2.66671 4.35354 2.80718 4.69268 3.05723 4.94273C3.30728 5.19278 3.64642 5.33325 4.00004 5.33325H5.33337ZM6.66671 6.66659V9.33325H9.33337V6.66659H6.66671ZM5.33337 10.6666H4.00004C3.64642 10.6666 3.30728 10.8071 3.05723 11.0571C2.80718 11.3072 2.66671 11.6463 2.66671 11.9999C2.66671 12.3535 2.80718 12.6927 3.05723 12.9427C3.30728 13.1928 3.64642 13.3333 4.00004 13.3333C4.35366 13.3333 4.6928 13.1928 4.94285 12.9427C5.1929 12.6927 5.33337 12.3535 5.33337 11.9999V10.6666ZM10.6667 10.6666V11.9999C10.6667 12.3535 10.8072 12.6927 11.0572 12.9427C11.3073 13.1928 11.6464 13.3333 12 13.3333C12.3537 13.3333 12.6928 13.1928 12.9429 12.9427C13.1929 12.6927 13.3334 12.3535 13.3334 11.9999C13.3334 11.6463 13.1929 11.3072 12.9429 11.0571C12.6928 10.8071 12.3537 10.6666 12 10.6666H10.6667ZM10.6667 5.33325H12C12.3537 5.33325 12.6928 5.19278 12.9429 4.94273C13.1929 4.69268 13.3334 4.35354 13.3334 3.99992C13.3334 3.6463 13.1929 3.30716 12.9429 3.05711C12.6928 2.80706 12.3537 2.66659 12 2.66659C11.6464 2.66659 11.3073 2.80706 11.0572 3.05711C10.8072 3.30716 10.6667 3.6463 10.6667 3.99992V5.33325Z" fill="#494C4E"/>
</svg>
