<svg width="14" height="14" viewBox="0 0 14 14" fill="none" xmlns="http://www.w3.org/2000/svg">
<path fill-rule="evenodd" clip-rule="evenodd" d="M1.11438 1.1143C1.61448 0.614204 2.29276 0.333252 3 0.333252C3.70724 0.333252 4.38552 0.614204 4.88562 1.1143C5.38572 1.6144 5.66667 2.29267 5.66667 2.99992V4.33325H8.33333V2.99992C8.33333 2.29267 8.61428 1.6144 9.11438 1.1143C9.61448 0.614204 10.2928 0.333252 11 0.333252C11.7072 0.333252 12.3855 0.614204 12.8856 1.1143C13.3857 1.6144 13.6667 2.29267 13.6667 2.99992C13.6667 3.70716 13.3857 4.38544 12.8856 4.88554C12.3855 5.38563 11.7072 5.66659 11 5.66659H9.66667V8.33325H11C11.7072 8.33325 12.3855 8.6142 12.8856 9.1143C13.3857 9.6144 13.6667 10.2927 13.6667 10.9999C13.6667 11.7072 13.3857 12.3854 12.8856 12.8855C12.3855 13.3856 11.7072 13.6666 11 13.6666C10.2928 13.6666 9.61448 13.3856 9.11438 12.8855C8.61428 12.3854 8.33333 11.7072 8.33333 10.9999V9.66659H5.66667V10.9999C5.66667 11.7072 5.38572 12.3854 4.88562 12.8855C4.38552 13.3856 3.70724 13.6666 3 13.6666C2.29276 13.6666 1.61448 13.3856 1.11438 12.8855C0.614285 12.3854 0.333333 11.7072 0.333333 10.9999C0.333333 10.2927 0.614285 9.6144 1.11438 9.1143C1.61448 8.6142 2.29276 8.33325 3 8.33325H4.33333V5.66659H3C2.29276 5.66659 1.61448 5.38563 1.11438 4.88554C0.614285 4.38544 0.333333 3.70716 0.333333 2.99992C0.333333 2.29267 0.614285 1.6144 1.11438 1.1143ZM4.33333 4.33325V2.99992C4.33333 2.6463 4.19286 2.30716 3.94281 2.05711C3.69276 1.80706 3.35362 1.66659 3 1.66659C2.64638 1.66659 2.30724 1.80706 2.05719 2.05711C1.80714 2.30716 1.66667 2.6463 1.66667 2.99992C1.66667 3.35354 1.80714 3.69268 2.05719 3.94273C2.30724 4.19278 2.64638 4.33325 3 4.33325H4.33333ZM5.66667 5.66659V8.33325H8.33333V5.66659H5.66667ZM4.33333 9.66659H3C2.64638 9.66659 2.30724 9.80706 2.05719 10.0571C1.80714 10.3072 1.66667 10.6463 1.66667 10.9999C1.66667 11.3535 1.80714 11.6927 2.05719 11.9427C2.30724 12.1928 2.64638 12.3333 3 12.3333C3.35362 12.3333 3.69276 12.1928 3.94281 11.9427C4.19286 11.6927 4.33333 11.3535 4.33333 10.9999V9.66659ZM9.66667 9.66659V10.9999C9.66667 11.3535 9.80714 11.6927 10.0572 11.9427C10.3072 12.1928 10.6464 12.3333 11 12.3333C11.3536 12.3333 11.6928 12.1928 11.9428 11.9427C12.1929 11.6927 12.3333 11.3535 12.3333 10.9999C12.3333 10.6463 12.1929 10.3072 11.9428 10.0571C11.6928 9.80706 11.3536 9.66659 11 9.66659H9.66667ZM9.66667 4.33325H11C11.3536 4.33325 11.6928 4.19278 11.9428 3.94273C12.1929 3.69268 12.3333 3.35354 12.3333 2.99992C12.3333 2.6463 12.1929 2.30716 11.9428 2.05711C11.6928 1.80706 11.3536 1.66659 11 1.66659C10.6464 1.66659 10.3072 1.80706 10.0572 2.05711C9.80714 2.30716 9.66667 2.6463 9.66667 2.99992V4.33325Z" fill="#D2D2D3"/>
</svg>
