<svg width="134" height="162" viewBox="0 0 134 162" fill="none" xmlns="http://www.w3.org/2000/svg">
<path d="M66.6339 97C92.5877 97 111.148 110.847 120.196 121C111.148 131.153 92.5877 145 66.6339 145C40.6324 145 22.3998 131.098 13.6517 121C22.3998 110.902 40.6324 97 66.6339 97Z" stroke="#E55929" stroke-width="22"/>
<path d="M91 87.6339C91 113.588 77.1532 132.148 67 141.196C56.8468 132.148 43 113.588 43 87.6339C43 61.6324 56.9017 43.3998 67 34.6517C77.0984 43.3998 91 61.6324 91 87.6339Z" stroke="#F0BE57" stroke-width="22"/>
<path d="M69.5 5.5739L67 2M64.5 5.5739L67 2M67 2L67 162" stroke="black" stroke-width="1.2"/>
<path d="M84.999 15.5739L82.499 12M79.999 15.5739L82.499 12M82.499 12L82.499 22.3437C82.499 22.4453 82.5312 22.5442 82.5909 22.6264L92.3486 36.0589C110.216 60.6549 114.413 92.6255 103.5 121V121" stroke="black" stroke-width="1.2" stroke-linejoin="round"/>
<path d="M48.001 15.5739L50.501 12M53.001 15.5739L50.501 12M50.501 12L50.501 22.3437C50.501 22.4453 50.4688 22.5442 50.4091 22.6264L40.6514 36.0589C22.784 60.6549 18.5868 92.6255 29.5 121V121" stroke="black" stroke-width="1.2" stroke-linejoin="round"/>
</svg>
