<svg width="152" height="42" viewBox="0 0 152 42" fill="none" xmlns="http://www.w3.org/2000/svg">
<path d="M10.6305 29.8722C8.52558 29.8722 6.67324 29.5887 5.12227 29.0288C3.56177 28.4654 2.33363 27.6375 1.47357 26.5689C0.61589 25.5028 0.126299 24.1901 0.0190892 22.6689C-0.0869293 21.1692 0.248994 19.4633 1.01852 17.6003C1.06498 17.4883 1.17338 17.4156 1.29369 17.4156H8.93775C9.63937 17.4156 10.1885 17.5895 10.5697 17.9314C10.9843 18.3043 11.0414 18.9988 10.7448 20.0577C10.6876 20.2829 10.6448 20.4544 10.6174 20.5676C10.4828 21.0989 10.4482 21.5539 10.5125 21.9244C10.5328 22.0411 10.5745 22.2853 11.1534 22.2853C12.1028 22.2853 12.7222 21.9053 13.0498 21.1215C13.3584 20.427 13.3393 19.8552 12.995 19.3668C12.621 18.826 12.0421 18.2959 11.2713 17.7873C10.5292 17.3025 9.68107 16.7795 8.67806 16.1887C7.737 15.6443 6.8817 14.9772 6.13957 14.2065C5.39983 13.4393 4.87926 12.5126 4.5898 11.4536C4.29676 10.3815 4.46948 9.07471 5.10202 7.56781C5.65594 6.16456 6.32064 4.96381 7.07468 4.0025C7.8311 3.03761 8.75192 2.24426 9.81091 1.64507C10.8604 1.05304 12.0897 0.62539 13.4656 0.374043C14.8331 0.126269 16.452 0 18.2745 0C20.3889 0 22.2449 0.290657 23.7911 0.866016C25.3539 1.44614 26.5809 2.28238 27.4374 3.34971C28.2974 4.41942 28.7799 5.73334 28.8704 7.25333C28.9598 8.7495 28.631 10.4375 27.8936 12.2684C27.8483 12.3815 27.7388 12.4554 27.6173 12.4554H19.9244C19.3216 12.4554 18.8022 12.3232 18.3782 12.0635C18.0399 11.855 17.6813 11.4119 17.8969 10.4827C17.9029 10.4589 17.9112 10.4363 17.9219 10.4148C17.9577 10.3457 18.0172 10.204 18.0958 9.92643C18.1816 9.64768 18.2221 9.52499 18.2531 9.45232C18.4115 8.86148 18.4663 8.36831 18.4139 7.98593C18.3972 7.85609 18.3651 7.59164 17.754 7.59164C17.1107 7.59164 16.6378 7.72625 16.3483 7.99189C16.0386 8.2754 15.8147 8.57678 15.6836 8.88649C15.3513 9.60837 15.362 10.1921 15.7158 10.6805C16.1136 11.2272 16.7081 11.7561 17.4812 12.2553C18.3377 12.8008 19.2311 13.3297 20.134 13.8277C21.1215 14.3792 22.0007 15.0308 22.7452 15.7658C23.5052 16.5305 24.0341 17.4466 24.3211 18.4877C24.6118 19.5562 24.4391 20.8416 23.8077 22.3103C23.2169 23.7243 22.5379 24.9239 21.7922 25.8733C21.0346 26.837 20.1197 27.6291 19.0726 28.2283C18.0399 28.8227 16.8177 29.2504 15.4382 29.5005C14.0707 29.7483 12.453 29.8746 10.6293 29.8746L10.6305 29.8722ZM52.2576 29.3945H45.1294C44.2562 29.3945 43.545 29.1837 43.0126 28.7667C42.5015 28.3653 42.1263 27.871 41.8988 27.2956L37.153 18.9023L32.9325 29.2087C32.8872 29.3207 32.7776 29.3933 32.6573 29.3933H23.3634C23.2645 29.3933 23.1716 29.3445 23.1156 29.2611C23.0596 29.1777 23.0501 29.0741 23.087 28.9824L33.9688 2.81009C34.25 2.09416 34.7205 1.52 35.3661 1.10783C36.013 0.701628 36.7027 0.496738 37.415 0.496738H44.4504C44.5492 0.496738 44.6422 0.54677 44.6981 0.628964C44.7529 0.711158 44.7637 0.815985 44.7267 0.907709L40.679 10.2302L48.8317 2.4289C49.3332 1.92144 50.0134 1.46877 50.8472 1.08877C51.6775 0.711158 52.559 0.519372 53.4679 0.519372H61.9363C62.0578 0.519372 62.1674 0.593227 62.2126 0.706393C62.2579 0.819559 62.2293 0.94821 62.1412 1.03279L45.9072 16.4865L52.5364 28.9871C52.5721 29.0788 52.5602 29.1825 52.5042 29.2635C52.4482 29.3445 52.3565 29.3933 52.2588 29.3933L52.2576 29.3945ZM98.4043 9.5238C98.4043 9.5238 98.4007 9.53213 98.3995 9.5369L96.3351 15.2464H92.8925L94.989 9.75013C95.157 9.33558 95.4476 8.96988 95.8515 8.66255C96.266 8.34806 96.7068 8.25872 97.0832 8.21226C97.7955 8.1265 98.2351 8.24443 98.4281 8.57559C98.5734 8.82693 98.5663 9.13665 98.4043 9.5238ZM107.821 4.37296C107.536 3.59391 107.032 2.90538 106.323 2.32764C105.633 1.75586 104.682 1.302 103.499 0.979182C102.332 0.659935 100.859 0.49793 99.1226 0.49793C97.5847 0.49793 96.2315 0.571785 95.0986 0.715923C93.9693 0.861251 92.9806 1.08401 92.1623 1.37705C91.3463 1.66771 90.6506 2.03818 90.0895 2.48012C89.5392 2.92325 89.0699 3.42952 88.6946 3.98463C88.1705 4.63384 87.7309 5.44864 87.3914 6.40399L78.5752 29.9115C78.5407 30.0032 78.5538 30.1057 78.6098 30.1855C78.6646 30.2653 78.7563 30.3141 78.854 30.3141H87.2914C87.4164 30.3141 87.5272 30.2367 87.5701 30.12L89.9263 23.7791H93.581L91.3737 29.9151C91.3403 30.0068 91.3546 30.1081 91.4106 30.1867C91.4654 30.2665 91.5571 30.3141 91.6536 30.3141H99.5847C99.7086 30.3141 99.8206 30.2367 99.8635 30.1212L107.817 8.99132C108.067 8.27659 108.184 7.53446 108.164 6.78518C108.216 5.93704 108.101 5.12462 107.821 4.37296ZM119.569 30.3141H102.59C102.493 30.3141 102.401 30.2665 102.345 30.1855C102.289 30.1045 102.277 30.002 102.311 29.9103L113.421 0.689716C113.465 0.574168 113.576 0.49793 113.7 0.49793H122.075C122.173 0.49793 122.264 0.545578 122.32 0.626581C122.376 0.707584 122.388 0.810029 122.354 0.901753L113.939 23.068H122.076C122.174 23.068 122.266 23.1156 122.322 23.1966C122.378 23.2764 122.389 23.3801 122.355 23.4706L119.849 30.1224C119.804 30.2379 119.694 30.3153 119.57 30.3153L119.569 30.3141ZM142.227 9.05565C142.227 9.05565 142.224 9.0616 142.223 9.06518L140.953 12.4983C140.784 12.914 140.494 13.2797 140.091 13.5859C139.7 13.8837 139.298 14.0338 138.895 14.0338H137.12L139.51 7.74411H141.47C141.955 7.74411 142.135 7.95258 142.229 8.10863C142.382 8.36474 142.382 8.67446 142.227 9.05565ZM151.979 5.22826C151.938 4.76249 151.842 4.32055 151.695 3.9072C151.547 3.49385 151.344 3.10789 151.092 2.75291C150.586 2.04771 149.901 1.48902 149.054 1.09235C148.209 0.698054 147.207 0.49793 146.076 0.49793H133.048C132.925 0.49793 132.814 0.574168 132.77 0.690907L121.802 29.9115C121.768 30.0032 121.78 30.1057 121.836 30.1855C121.892 30.2653 121.983 30.3141 122.081 30.3141H130.69C130.811 30.3141 130.922 30.2391 130.966 30.1247L134.21 21.9065H135.691C136.709 21.9065 137.697 21.8708 138.623 21.8005C139.541 21.7421 140.47 21.5897 141.386 21.3466C142.282 21.1072 143.15 20.7558 143.967 20.3019C144.783 19.8457 145.59 19.2227 146.364 18.4532C147.833 16.9951 148.877 15.4584 149.472 13.8825L151.496 8.21584C151.898 7.15208 152.062 6.14788 151.979 5.22826ZM62.7797 41.5771L62.5247 41.5723C62.4271 41.5712 62.3353 41.5211 62.2817 41.4389C62.2281 41.3567 62.2174 41.2543 62.2543 41.1638L65.4742 33.0134L66.7393 29.8734H63.0477C61.7719 29.8734 60.5425 29.6864 59.3954 29.3159C58.2125 28.9347 57.2453 28.2807 56.5186 27.373C55.7884 26.4594 55.3715 25.2407 55.2809 23.7529C55.1916 22.2829 55.593 20.4354 56.4745 18.2602L63.2037 0.712349C63.2478 0.596801 63.3586 0.521754 63.4813 0.521754H71.6423C71.7412 0.521754 71.8377 0.570594 71.8937 0.653979C71.9497 0.737365 71.964 0.841001 71.9258 0.932724L64.1436 19.9946C64.0078 20.4092 64.0221 20.7272 64.1877 20.9416C64.4914 21.3359 65.2729 21.3776 65.548 21.3597C65.554 21.3597 65.5611 21.3597 65.5671 21.3597H70.2581L78.5776 0.707584C78.6229 0.594418 78.7325 0.520563 78.854 0.520563H87.015C87.1127 0.520563 87.2092 0.569403 87.264 0.649214C87.32 0.730217 87.3354 0.832662 87.3009 0.924386L79.6997 20.7927L75.4685 32.0307C75.4685 32.0307 75.4649 32.0402 75.4626 32.045C74.7764 33.6245 74.2809 34.4298 73.4959 35.5376C72.7049 36.6526 71.871 37.5984 71.0169 38.3465C70.17 39.0946 69.3016 39.7009 68.438 40.1465C67.5826 40.5908 66.744 40.9196 65.9435 41.1256C64.9167 41.4187 63.8494 41.5712 62.7797 41.5759V41.5771Z" fill="white"/>
</svg>
